<?xml version="1.0" encoding="UTF-8" standalone="no"?>
<!-- Created with Inkscape (http://www.inkscape.org/) -->

<svg
   xmlns:dc="http://purl.org/dc/elements/1.1/"
   xmlns:cc="http://creativecommons.org/ns#"
   xmlns:rdf="http://www.w3.org/1999/02/22-rdf-syntax-ns#"
   xmlns:svg="http://www.w3.org/2000/svg"
   xmlns="http://www.w3.org/2000/svg"
   xmlns:sodipodi="http://sodipodi.sourceforge.net/DTD/sodipodi-0.dtd"
   xmlns:inkscape="http://www.inkscape.org/namespaces/inkscape"
   width="1205.7142"
   height="800"
   id="svg2"
   sodipodi:version="0.32"
   inkscape:version="0.48.4 r9939"
   sodipodi:docname="AJAX.svg"
   inkscape:output_extension="org.inkscape.output.svg.inkscape"
   version="1.0"
   sodipodi:modified="true">
  <defs
     id="defs4" />
  <sodipodi:namedview
     id="base"
     pagecolor="#ffffff"
     bordercolor="#666666"
     borderopacity="1.0"
     inkscape:pageopacity="0.0"
     inkscape:pageshadow="2"
     inkscape:zoom="0.25"
     inkscape:cx="-300.95699"
     inkscape:cy="233.28948"
     inkscape:document-units="px"
     inkscape:current-layer="layer2"
     inkscape:window-width="1280"
     inkscape:window-height="708"
     inkscape:window-x="0"
     inkscape:window-y="26"
     inkscape:object-bbox="false"
     inkscape:object-points="false"
     inkscape:object-nodes="false"
     objecttolerance="10000"
     inkscape:object-paths="false"
     showguides="true"
     inkscape:guide-bbox="true"
     showgrid="false"
     inkscape:window-maximized="0" />
  <metadata
     id="metadata7">
    <rdf:RDF>
      <cc:Work
         rdf:about="">
        <dc:format>image/svg+xml</dc:format>
        <dc:type
           rdf:resource="http://purl.org/dc/dcmitype/StillImage" />
      </cc:Work>
    </rdf:RDF>
  </metadata>
  <g
     inkscape:groupmode="layer"
     id="layer2"
     inkscape:label="SVG"
     transform="translate(445.71429,144.78067)">
    <rect
       style="color:#000000;fill:#630b57;fill-opacity:1;fill-rule:evenodd;stroke:none;stroke-width:2.25000000000000000;stroke-linecap:butt;stroke-linejoin:miter;marker:none;marker-start:none;marker-mid:none;marker-end:none;stroke-miterlimit:4;stroke-dasharray:none;stroke-dashoffset:0;stroke-opacity:1;visibility:visible;display:inline;overflow:visible;enable-background:accumulate"
       id="rect15168"
       width="1205.7142"
       height="800"
       x="-445.71429"
       y="-144.78067" />
    <path
       sodipodi:type="star"
       style="opacity:1;color:#000000;fill:#d40000;fill-opacity:1;fill-rule:evenodd;stroke:none;stroke-width:2.25000000000000000;stroke-linecap:butt;stroke-linejoin:miter;marker:none;marker-start:none;marker-mid:none;marker-end:none;stroke-miterlimit:4;stroke-dasharray:none;stroke-dashoffset:0;stroke-opacity:1;visibility:visible;display:inline;overflow:visible;enable-background:accumulate"
       id="path2327"
       sodipodi:sides="5"
       sodipodi:cx="602.85712"
       sodipodi:cy="420"
       sodipodi:r1="391.439"
       sodipodi:r2="152.31413"
       sodipodi:arg1="-1.5707963"
       sodipodi:arg2="-0.94247777"
       inkscape:flatsided="false"
       inkscape:rounded="0"
       inkscape:randomized="0"
       d="M 602.85713,28.561005 692.38512,296.77528 975.13773,299.03871 747.71646,467.06766 832.93918,736.68081 602.85711,572.31413 372.77504,736.68079 457.99777,467.06765 230.57651,299.03869 513.32912,296.77528 z"
       transform="matrix(1.0535611,0,0,1.0535611,-478.00399,-147.89517)" />
    <g
       id="g15130"
       transform="matrix(0.6124564,0,0,0.6124564,61.043919,114.23453)">
      <path
         id="use8302"
         d="M 46.205355,192.22768 C 46.769685,192.73462 47.292705,193.23088 47.830355,193.72768 L 57.642855,193.72768 L 57.642855,192.22768 L 46.205355,192.22768 z M 58.267855,192.22768 L 58.267855,193.72768 L 74.924105,193.72768 L 74.924105,192.22768 L 58.267855,192.22768 z M 75.517855,192.22768 L 75.517855,193.72768 L 92.205355,193.72768 L 92.205355,192.22768 L 75.517855,192.22768 z M 92.799105,192.22768 L 92.799105,193.72768 L 109.45535,193.72768 L 109.45535,192.22768 L 92.799105,192.22768 z M 110.0491,192.22768 L 110.0491,193.72768 L 126.7366,193.72768 L 126.7366,192.22768 L 110.0491,192.22768 z M 127.33035,192.22768 L 127.33035,193.72768 L 143.9866,193.72768 L 143.9866,192.22768 L 127.33035,192.22768 z M 144.58035,192.22768 L 144.58035,193.72768 L 161.26785,193.72768 L 161.26785,192.22768 L 144.58035,192.22768 z M 161.8616,192.22768 L 161.8616,193.72768 L 178.51785,193.72768 L 178.51785,192.22768 L 161.8616,192.22768 z M 179.14285,192.22768 L 179.14285,193.72768 L 195.7991,193.72768 L 195.7991,192.22768 L 179.14285,192.22768 z M 196.39285,192.22768 L 196.39285,193.72768 L 213.0491,193.72768 L 213.0491,192.22768 L 196.39285,192.22768 z M 213.6741,192.22768 L 213.6741,193.72768 L 230.33035,193.72768 L 230.33035,192.22768 L 213.6741,192.22768 z M 230.9241,192.22768 L 230.9241,193.72768 L 247.6116,193.72768 L 247.6116,192.22768 L 230.9241,192.22768 z M 248.20535,192.22768 L 248.20535,193.72768 L 264.8616,193.72768 L 264.8616,192.22768 L 248.20535,192.22768 z M 265.45535,192.22768 L 265.45535,193.72768 L 272.76785,193.72768 C 273.64794,192.82288 274.26785,192.22768 274.26785,192.22768 L 265.45535,192.22768 z M 48.486605,194.32143 C 48.663275,194.48657 48.844115,194.65742 49.017855,194.82143 L 49.017855,194.32143 L 48.486605,194.32143 z M 49.611605,194.32143 L 49.611605,195.38393 C 50.594765,196.32285 51.534775,197.23273 52.424105,198.13393 L 66.299105,198.13393 L 66.299105,194.32143 L 49.611605,194.32143 z M 66.892855,194.32143 L 66.892855,198.13393 L 83.549105,198.13393 L 83.549105,194.32143 L 66.892855,194.32143 z M 84.142855,194.32143 L 84.142855,198.13393 L 100.83035,198.13393 L 100.83035,194.32143 L 84.142855,194.32143 z M 101.4241,194.32143 L 101.4241,198.13393 L 118.08035,198.13393 L 118.08035,194.32143 L 101.4241,194.32143 z M 118.70535,194.32143 L 118.70535,198.13393 L 135.3616,198.13393 L 135.3616,194.32143 L 118.70535,194.32143 z M 135.95535,194.32143 L 135.95535,198.13393 L 152.64285,198.13393 L 152.64285,194.32143 L 135.95535,194.32143 z M 153.2366,194.32143 L 153.2366,198.13393 L 169.89285,198.13393 L 169.89285,194.32143 L 153.2366,194.32143 z M 170.4866,194.32143 L 170.4866,198.13393 L 187.1741,198.13393 L 187.1741,194.32143 L 170.4866,194.32143 z M 187.76785,194.32143 L 187.76785,198.13393 L 204.4241,198.13393 L 204.4241,194.32143 L 187.76785,194.32143 z M 205.01785,194.32143 L 205.01785,198.13393 L 221.70535,198.13393 L 221.70535,194.32143 L 205.01785,194.32143 z M 222.2991,194.32143 L 222.2991,198.13393 L 238.95535,198.13393 L 238.95535,194.32143 L 222.2991,194.32143 z M 239.58035,194.32143 L 239.58035,198.13393 L 256.2366,198.13393 L 256.2366,194.32143 L 239.58035,194.32143 z M 256.83035,194.32143 L 256.83035,198.13393 L 268.6741,198.13393 C 270.11138,196.51675 271.24156,195.32388 272.20535,194.32143 L 256.83035,194.32143 z M 52.986605,198.72768 C 54.256915,200.0321 55.433935,201.2845 56.517855,202.50893 L 57.642855,202.50893 L 57.642855,198.72768 L 52.986605,198.72768 z M 58.267855,198.72768 L 58.267855,202.50893 L 74.924105,202.50893 L 74.924105,198.72768 L 58.267855,198.72768 z M 75.517855,198.72768 L 75.517855,202.50893 L 92.205355,202.50893 L 92.205355,198.72768 L 75.517855,198.72768 z M 92.799105,198.72768 L 92.799105,202.50893 L 109.45535,202.50893 L 109.45535,198.72768 L 92.799105,198.72768 z M 110.0491,198.72768 L 110.0491,202.50893 L 126.7366,202.50893 L 126.7366,198.72768 L 110.0491,198.72768 z M 127.33035,198.72768 L 127.33035,202.50893 L 143.9866,202.50893 L 143.9866,198.72768 L 127.33035,198.72768 z M 144.58035,198.72768 L 144.58035,202.50893 L 161.26785,202.50893 L 161.26785,198.72768 L 144.58035,198.72768 z M 161.8616,198.72768 L 161.8616,202.50893 L 178.51785,202.50893 L 178.51785,198.72768 L 161.8616,198.72768 z M 179.14285,198.72768 L 179.14285,202.50893 L 195.7991,202.50893 L 195.7991,198.72768 L 179.14285,198.72768 z M 196.39285,198.72768 L 196.39285,202.50893 L 213.0491,202.50893 L 213.0491,198.72768 L 196.39285,198.72768 z M 213.6741,198.72768 L 213.6741,202.50893 L 230.33035,202.50893 L 230.33035,198.72768 L 213.6741,198.72768 z M 230.9241,198.72768 L 230.9241,202.50893 L 247.6116,202.50893 L 247.6116,198.72768 L 230.9241,198.72768 z M 248.20535,198.72768 L 248.20535,202.50893 L 264.8616,202.50893 L 264.8616,198.72768 L 248.20535,198.72768 z M 265.45535,198.72768 L 265.45535,201.94643 C 266.39095,200.81192 267.27895,199.71106 268.14285,198.72768 L 265.45535,198.72768 z M 57.049105,203.10268 C 58.190075,204.413 59.231585,205.66654 60.174105,206.88393 L 66.299105,206.88393 L 66.299105,203.10268 L 57.049105,203.10268 z M 66.892855,203.10268 L 66.892855,206.88393 L 83.549105,206.88393 L 83.549105,203.10268 L 66.892855,203.10268 z M 84.142855,203.10268 L 84.142855,206.88393 L 100.83035,206.88393 L 100.83035,203.10268 L 84.142855,203.10268 z M 101.4241,203.10268 L 101.4241,206.88393 L 118.08035,206.88393 L 118.08035,203.10268 L 101.4241,203.10268 z M 118.70535,203.10268 L 118.70535,206.88393 L 135.3616,206.88393 L 135.3616,203.10268 L 118.70535,203.10268 z M 135.95535,203.10268 L 135.95535,206.88393 L 152.64285,206.88393 L 152.64285,203.10268 L 135.95535,203.10268 z M 153.2366,203.10268 L 153.2366,206.88393 L 169.89285,206.88393 L 169.89285,203.10268 L 153.2366,203.10268 z M 170.4866,203.10268 L 170.4866,206.88393 L 187.1741,206.88393 L 187.1741,203.10268 L 170.4866,203.10268 z M 187.76785,203.10268 L 187.76785,206.88393 L 204.4241,206.88393 L 204.4241,203.10268 L 187.76785,203.10268 z M 205.01785,203.10268 L 205.01785,206.88393 L 221.70535,206.88393 L 221.70535,203.10268 L 205.01785,203.10268 z M 222.2991,203.10268 L 222.2991,206.88393 L 238.95535,206.88393 L 238.95535,203.10268 L 222.2991,203.10268 z M 239.58035,203.10268 L 239.58035,206.88393 L 256.2366,206.88393 L 256.2366,203.10268 L 239.58035,203.10268 z M 256.83035,203.10268 L 256.83035,206.88393 L 261.58035,206.88393 C 262.54795,205.56656 263.51186,204.31454 264.4866,203.10268 L 256.83035,203.10268 z M 60.674105,207.50893 C 61.667485,208.82023 62.547805,210.08873 63.330355,211.29018 L 74.924105,211.29018 L 74.924105,207.50893 L 60.674105,207.50893 z M 75.517855,207.50893 L 75.517855,211.29018 L 92.205355,211.29018 L 92.205355,207.50893 L 75.517855,207.50893 z M 92.799105,207.50893 L 92.799105,211.29018 L 109.45535,211.29018 L 109.45535,207.50893 L 92.799105,207.50893 z M 110.0491,207.50893 L 110.0491,211.29018 L 126.7366,211.29018 L 126.7366,207.50893 L 110.0491,207.50893 z M 127.33035,207.50893 L 127.33035,211.29018 L 143.9866,211.29018 L 143.9866,207.50893 L 127.33035,207.50893 z M 144.58035,207.50893 L 144.58035,211.29018 L 161.26785,211.29018 L 161.26785,207.50893 L 144.58035,207.50893 z M 161.8616,207.50893 L 161.8616,211.29018 L 178.51785,211.29018 L 178.51785,207.50893 L 161.8616,207.50893 z M 179.14285,207.50893 L 179.14285,211.29018 L 195.7991,211.29018 L 195.7991,207.50893 L 179.14285,207.50893 z M 196.39285,207.50893 L 196.39285,211.29018 L 213.0491,211.29018 L 213.0491,207.50893 L 196.39285,207.50893 z M 213.6741,207.50893 L 213.6741,211.29018 L 230.33035,211.29018 L 230.33035,207.50893 L 213.6741,207.50893 z M 230.9241,207.50893 L 230.9241,211.29018 L 247.6116,211.29018 L 247.6116,207.50893 L 230.9241,207.50893 z M 248.20535,207.50893 L 248.20535,211.29018 L 258.5491,211.29018 C 259.36984,210.01144 260.22438,208.73741 261.1116,207.50893 L 248.20535,207.50893 z M 63.705355,211.88393 C 64.546275,213.21114 65.250575,214.475 65.861605,215.66518 L 66.299105,215.66518 L 66.299105,211.88393 L 63.705355,211.88393 z M 66.892855,211.88393 L 66.892855,215.66518 L 83.549105,215.66518 L 83.549105,211.88393 L 66.892855,211.88393 z M 84.142855,211.88393 L 84.142855,215.66518 L 100.83035,215.66518 L 100.83035,211.88393 L 84.142855,211.88393 z M 101.4241,211.88393 L 101.4241,215.66518 L 118.08035,215.66518 L 118.08035,211.88393 L 101.4241,211.88393 z M 118.70535,211.88393 L 118.70535,215.66518 L 135.3616,215.66518 L 135.3616,211.88393 L 118.70535,211.88393 z M 135.95535,211.88393 L 135.95535,215.66518 L 152.64285,215.66518 L 152.64285,211.88393 L 135.95535,211.88393 z M 153.2366,211.88393 L 153.2366,215.66518 L 169.89285,215.66518 L 169.89285,211.88393 L 153.2366,211.88393 z M 170.4866,211.88393 L 170.4866,215.66518 L 187.1741,215.66518 L 187.1741,211.88393 L 170.4866,211.88393 z M 187.76785,211.88393 L 187.76785,215.66518 L 204.4241,215.66518 L 204.4241,211.88393 L 187.76785,211.88393 z M 205.01785,211.88393 L 205.01785,215.66518 L 221.70535,215.66518 L 221.70535,211.88393 L 205.01785,211.88393 z M 222.2991,211.88393 L 222.2991,215.66518 L 238.95535,215.66518 L 238.95535,211.88393 L 222.2991,211.88393 z M 239.58035,211.88393 L 239.58035,215.66518 L 255.95535,215.66518 C 256.04854,215.48893 256.14074,215.3102 256.2366,215.13393 L 256.2366,211.88393 L 239.58035,211.88393 z M 256.83035,211.88393 L 256.83035,214.07143 C 257.25174,213.33594 257.71617,212.61312 258.1741,211.88393 L 256.83035,211.88393 z M 66.174105,216.29018 C 66.843075,217.64917 67.387055,218.89664 67.799105,220.07143 L 74.924105,220.07143 L 74.924105,216.29018 L 66.174105,216.29018 z M 75.517855,216.29018 L 75.517855,220.07143 L 92.205355,220.07143 L 92.205355,216.29018 L 75.517855,216.29018 z M 92.799105,216.29018 L 92.799105,220.07143 L 109.45535,220.07143 L 109.45535,216.29018 L 92.799105,216.29018 z M 110.0491,216.29018 L 110.0491,220.07143 L 126.7366,220.07143 L 126.7366,216.29018 L 110.0491,216.29018 z M 127.33035,216.29018 L 127.33035,220.07143 L 143.9866,220.07143 L 143.9866,216.29018 L 127.33035,216.29018 z M 144.58035,216.29018 L 144.58035,220.07143 L 161.26785,220.07143 L 161.26785,216.29018 L 144.58035,216.29018 z M 161.8616,216.29018 L 161.8616,220.07143 L 178.51785,220.07143 L 178.51785,216.29018 L 161.8616,216.29018 z M 179.14285,216.29018 L 179.14285,220.07143 L 195.7991,220.07143 L 195.7991,216.29018 L 179.14285,216.29018 z M 196.39285,216.29018 L 196.39285,220.07143 L 213.0491,220.07143 L 213.0491,216.29018 L 196.39285,216.29018 z M 213.6741,216.29018 L 213.6741,220.07143 L 230.33035,220.07143 L 230.33035,216.29018 L 213.6741,216.29018 z M 230.9241,216.29018 L 230.9241,220.07143 L 247.6116,220.07143 L 247.6116,216.29018 L 230.9241,216.29018 z M 248.20535,216.29018 L 248.20535,220.07143 L 253.95535,220.07143 C 254.43046,218.82344 254.99393,217.56188 255.64285,216.29018 L 248.20535,216.29018 z M 68.017855,220.66518 C 68.475745,222.0656 68.753115,223.31869 68.924105,224.44643 L 83.549105,224.44643 L 83.549105,220.66518 L 68.017855,220.66518 z M 84.142855,220.66518 L 84.142855,224.44643 L 100.83035,224.44643 L 100.83035,220.66518 L 84.142855,220.66518 z M 101.4241,220.66518 L 101.4241,224.44643 L 118.08035,224.44643 L 118.08035,220.66518 L 101.4241,220.66518 z M 118.70535,220.66518 L 118.70535,224.44643 L 135.3616,224.44643 L 135.3616,220.66518 L 118.70535,220.66518 z M 135.95535,220.66518 L 135.95535,224.44643 L 152.64285,224.44643 L 152.64285,220.66518 L 135.95535,220.66518 z M 153.2366,220.66518 L 153.2366,224.44643 L 169.89285,224.44643 L 169.89285,220.66518 L 153.2366,220.66518 z M 170.4866,220.66518 L 170.4866,224.44643 L 187.1741,224.44643 L 187.1741,220.66518 L 170.4866,220.66518 z M 187.76785,220.66518 L 187.76785,224.44643 L 204.4241,224.44643 L 204.4241,220.66518 L 187.76785,220.66518 z M 205.01785,220.66518 L 205.01785,224.44643 L 221.70535,224.44643 L 221.70535,220.66518 L 205.01785,220.66518 z M 222.2991,220.66518 L 222.2991,224.44643 L 238.95535,224.44643 L 238.95535,220.66518 L 222.2991,220.66518 z M 239.58035,220.66518 L 239.58035,224.44643 L 252.70535,224.44643 C 252.91812,223.22085 253.27582,221.95593 253.7366,220.66518 L 239.58035,220.66518 z M 68.986605,225.04018 C 69.174065,226.59929 69.123765,227.85314 68.986605,228.85268 L 74.924105,228.85268 L 74.924105,225.04018 L 68.986605,225.04018 z M 75.517855,225.04018 L 75.517855,228.85268 L 92.205355,228.85268 L 92.205355,225.04018 L 75.517855,225.04018 z M 92.799105,225.04018 L 92.799105,228.85268 L 109.45535,228.85268 L 109.45535,225.04018 L 92.799105,225.04018 z M 110.0491,225.04018 L 110.0491,228.85268 L 126.7366,228.85268 L 126.7366,225.04018 L 110.0491,225.04018 z M 127.33035,225.04018 L 127.33035,228.85268 L 143.9866,228.85268 L 143.9866,225.04018 L 127.33035,225.04018 z M 144.58035,225.04018 L 144.58035,228.85268 L 161.26785,228.85268 L 161.26785,225.04018 L 144.58035,225.04018 z M 161.8616,225.04018 L 161.8616,228.85268 L 178.51785,228.85268 L 178.51785,225.04018 L 161.8616,225.04018 z M 179.14285,225.04018 L 179.14285,228.85268 L 195.7991,228.85268 L 195.7991,225.04018 L 179.14285,225.04018 z M 196.39285,225.04018 L 196.39285,228.85268 L 213.0491,228.85268 L 213.0491,225.04018 L 196.39285,225.04018 z M 213.6741,225.04018 L 213.6741,228.85268 L 230.33035,228.85268 L 230.33035,225.04018 L 213.6741,225.04018 z M 230.9241,225.04018 L 230.9241,228.85268 L 247.6116,228.85268 L 247.6116,225.04018 L 230.9241,225.04018 z M 248.20535,225.04018 L 248.20535,228.85268 L 252.6116,228.85268 C 252.41839,227.64809 252.42617,226.37499 252.6116,225.04018 L 248.20535,225.04018 z M 68.892855,229.44643 C 68.618435,230.88033 68.205355,231.60268 68.205355,231.60268 L 83.549105,231.50893 L 83.549105,229.44643 L 68.892855,229.44643 z M 84.142855,229.44643 L 84.142855,231.50893 L 100.83035,231.41518 L 100.83035,229.44643 L 84.142855,229.44643 z M 101.4241,229.44643 L 101.4241,231.41518 L 118.08035,231.32143 L 118.08035,229.44643 L 101.4241,229.44643 z M 118.70535,229.44643 L 118.70535,231.32143 L 135.3616,231.22768 L 135.3616,229.44643 L 118.70535,229.44643 z M 135.95535,229.44643 L 135.95535,231.22768 L 152.64285,231.13393 L 152.64285,229.44643 L 135.95535,229.44643 z M 153.2366,229.44643 L 153.2366,231.13393 L 169.89285,231.04018 L 169.89285,229.44643 L 153.2366,229.44643 z M 170.4866,229.44643 L 170.4866,231.04018 L 187.1741,230.94643 L 187.1741,229.44643 L 170.4866,229.44643 z M 187.76785,229.44643 L 187.76785,230.94643 L 204.4241,230.85268 L 204.4241,229.44643 L 187.76785,229.44643 z M 205.01785,229.44643 L 205.01785,230.85268 L 221.70535,230.75893 L 221.70535,229.44643 L 205.01785,229.44643 z M 222.2991,229.44643 L 222.2991,230.75893 L 238.95535,230.66518 L 238.95535,229.44643 L 222.2991,229.44643 z M 239.58035,229.44643 L 239.58035,230.66518 L 253.0491,230.60268 C 252.91051,230.22337 252.79391,229.84507 252.70535,229.44643 L 239.58035,229.44643 z "
         style="opacity:1;color:#000000;fill:#ffd42a;fill-opacity:1;fill-rule:evenodd;stroke:#c8ab37;stroke-width:0.49543652;stroke-linecap:butt;stroke-linejoin:miter;marker:none;marker-start:none;marker-mid:none;marker-end:none;stroke-miterlimit:4;stroke-dasharray:none;stroke-dashoffset:0;stroke-opacity:1;visibility:visible;display:inline;overflow:visible;enable-background:accumulate" />
      <path
         id="path6844"
         d="M 135.85243,93.217846 L 135.85243,101.78096 L 151.56612,101.78096 L 151.56612,93.217846 L 135.85243,93.217846 z M 152.05242,93.217846 L 152.05242,101.78096 L 176.61075,101.78096 L 176.61075,93.217846 L 152.05242,93.217846 z M 177.09706,93.217846 L 177.09706,101.78096 L 189.40662,101.78096 L 189.40662,93.217846 L 177.09706,93.217846 z M 135.85243,102.281 L 135.85243,111.3754 L 139.0438,111.3754 L 139.0438,102.281 L 135.85243,102.281 z M 139.5301,102.281 L 139.5301,111.3754 L 164.08844,111.3754 L 164.08844,102.281 L 139.5301,102.281 z M 164.57474,102.281 L 164.57474,111.3754 L 189.13307,111.3754 L 189.13307,102.281 L 164.57474,102.281 z M 135.85243,111.87544 L 135.85243,120.96984 L 151.56612,120.96984 L 151.56612,111.87544 L 135.85243,111.87544 z M 152.05242,111.87544 L 152.05242,120.96984 L 176.61075,120.96984 L 176.61075,111.87544 L 152.05242,111.87544 z M 177.09706,111.87544 L 177.09706,120.96984 L 189.40662,120.96984 L 189.40662,111.87544 L 177.09706,111.87544 z M 135.85243,121.46988 L 135.85243,130.56428 L 139.0438,130.56428 L 139.0438,121.46988 L 135.85243,121.46988 z M 139.5301,121.46988 L 139.5301,130.56428 L 164.08844,130.56428 L 164.08844,121.46988 L 139.5301,121.46988 z M 164.57474,121.46988 L 164.57474,130.56428 L 189.13307,130.56428 L 189.13307,121.46988 L 164.57474,121.46988 z M 135.85243,131.06432 L 135.85243,140.15872 L 151.56612,140.15872 L 151.56612,131.06432 L 135.85243,131.06432 z M 152.05242,131.06432 L 152.05242,140.15872 L 176.61075,140.15872 L 176.61075,131.06432 L 152.05242,131.06432 z M 177.09706,131.06432 L 177.09706,140.15872 L 189.40662,140.15872 L 189.40662,131.06432 L 177.09706,131.06432 z M 135.85243,140.65876 L 135.85243,149.75317 L 139.0438,149.75317 L 139.0438,140.65876 L 135.85243,140.65876 z M 139.5301,140.65876 L 139.5301,149.75317 L 164.08844,149.75317 L 164.08844,140.65876 L 139.5301,140.65876 z M 164.57474,140.65876 L 164.57474,149.75317 L 189.13307,149.75317 L 189.13307,140.65876 L 164.57474,140.65876 z M 135.85243,150.2532 L 135.85243,159.34761 L 151.56612,159.34761 L 151.56612,150.2532 L 135.85243,150.2532 z M 152.05242,150.2532 L 152.05242,159.34761 L 176.61075,159.34761 L 176.61075,150.2532 L 152.05242,150.2532 z M 177.09706,150.2532 L 177.09706,159.34761 L 189.40662,159.34761 L 189.40662,150.2532 L 177.09706,150.2532 z M 135.85243,159.84764 L 135.85243,168.94205 L 139.0438,168.94205 L 139.0438,159.84764 L 135.85243,159.84764 z M 139.5301,159.84764 L 139.5301,168.94205 L 164.08844,168.94205 L 164.08844,159.84764 L 139.5301,159.84764 z M 164.57474,159.84764 L 164.57474,168.94205 L 189.13307,168.94205 L 189.13307,159.84764 L 164.57474,159.84764 z M 135.85243,169.44208 L 135.85243,178.53649 L 151.56612,178.53649 L 151.56612,169.44208 L 135.85243,169.44208 z M 152.05242,169.44208 L 152.05242,178.53649 L 176.61075,178.53649 L 176.61075,169.44208 L 152.05242,169.44208 z M 177.09706,169.44208 L 177.09706,178.53649 L 189.40662,178.53649 L 189.40662,169.44208 L 177.09706,169.44208 z M 135.85243,179.03652 L 135.85243,188.13093 L 139.0438,188.13093 L 139.0438,179.03652 L 135.85243,179.03652 z M 139.5301,179.03652 L 139.5301,188.13093 L 164.08844,188.13093 L 164.08844,179.03652 L 139.5301,179.03652 z M 164.57474,179.03652 L 164.57474,188.13093 L 189.13307,188.13093 L 189.13307,179.03652 L 164.57474,179.03652 z M 135.85243,188.63096 L 135.85243,189.19351 L 151.56612,189.19351 L 151.56612,188.63096 L 135.85243,188.63096 z M 152.05242,188.63096 L 152.05242,189.19351 L 176.61075,189.19351 L 176.61075,188.63096 L 152.05242,188.63096 z M 177.09706,188.63096 L 177.09706,189.19351 L 189.40662,189.19351 L 189.40662,188.63096 L 177.09706,188.63096 z "
         style="opacity:1;color:#000000;fill:#ffd42a;fill-opacity:1;fill-rule:evenodd;stroke:#c8ab37;stroke-width:0.49543652;stroke-linecap:butt;stroke-linejoin:miter;marker:none;marker-start:none;marker-mid:none;marker-end:none;stroke-miterlimit:4;stroke-dasharray:none;stroke-dashoffset:0;stroke-opacity:1;visibility:visible;display:inline;overflow:visible;enable-background:accumulate" />
      <path
         id="path6840"
         d="M 216.31857,117.55529 L 216.31857,118.02412 L 218.96122,118.02412 L 218.96122,117.55529 L 216.31857,117.55529 z M 219.4417,117.55529 L 219.4417,118.02412 L 243.70605,118.02412 L 243.70605,117.55529 L 219.4417,117.55529 z M 244.18653,117.55529 L 244.18653,118.02412 L 251.24361,118.02412 L 251.24361,117.55529 L 244.18653,117.55529 z M 216.31857,118.5242 L 216.31857,127.6195 L 231.33363,127.6195 L 231.33363,118.5242 L 216.31857,118.5242 z M 231.81412,118.5242 L 231.81412,127.6195 L 251.24361,127.6195 L 251.24361,118.5242 L 231.81412,118.5242 z M 216.31857,128.11958 L 216.31857,137.21488 L 218.96122,137.21488 L 218.96122,128.11958 L 216.31857,128.11958 z M 219.4417,128.11958 L 219.4417,137.21488 L 243.70605,137.21488 L 243.70605,128.11958 L 219.4417,128.11958 z M 244.18653,128.11958 L 244.18653,137.21488 L 251.24361,137.21488 L 251.24361,128.11958 L 244.18653,128.11958 z M 216.31857,137.71496 L 216.31857,146.81026 L 231.33363,146.81026 L 231.33363,137.71496 L 216.31857,137.71496 z M 231.81412,137.71496 L 231.81412,146.81026 L 251.24361,146.81026 L 251.24361,137.71496 L 231.81412,137.71496 z M 216.31857,147.31034 L 216.31857,156.40564 L 218.96122,156.40564 L 218.96122,147.31034 L 216.31857,147.31034 z M 219.4417,147.31034 L 219.4417,156.40564 L 243.70605,156.40564 L 243.70605,147.31034 L 219.4417,147.31034 z M 244.18653,147.31034 L 244.18653,156.40564 L 251.24361,156.40564 L 251.24361,147.31034 L 244.18653,147.31034 z M 216.31857,156.90572 L 216.31857,166.00102 L 231.33363,166.00102 L 231.33363,156.90572 L 216.31857,156.90572 z M 231.81412,156.90572 L 231.81412,166.00102 L 251.24361,166.00102 L 251.24361,156.90572 L 231.81412,156.90572 z M 216.31857,166.50111 L 216.31857,175.5964 L 218.96122,175.5964 L 218.96122,166.50111 L 216.31857,166.50111 z M 219.4417,166.50111 L 219.4417,175.5964 L 243.70605,175.5964 L 243.70605,166.50111 L 219.4417,166.50111 z M 244.18653,166.50111 L 244.18653,175.5964 L 251.24361,175.5964 L 251.24361,166.50111 L 244.18653,166.50111 z "
         style="opacity:1;color:#000000;fill:#ffd42a;fill-opacity:1;fill-rule:evenodd;stroke:#c8ab37;stroke-width:0.49543652;stroke-linecap:butt;stroke-linejoin:miter;marker:none;marker-start:none;marker-mid:none;marker-end:none;stroke-miterlimit:4;stroke-dasharray:none;stroke-dashoffset:0;stroke-opacity:1;visibility:visible;display:inline;overflow:visible;enable-background:accumulate" />
      <path
         id="path6837"
         d="M 72.028658,117.18433 L 72.028658,117.65308 L 74.778658,117.65308 L 74.778658,117.18433 L 72.028658,117.18433 z M 75.278658,117.18433 L 75.278658,117.65308 L 100.52865,117.65308 L 100.52865,117.18433 L 75.278658,117.18433 z M 101.02865,117.18433 L 101.02865,117.65308 L 108.3724,117.65308 L 108.3724,117.18433 L 101.02865,117.18433 z M 72.028658,118.15308 L 72.028658,127.24683 L 87.653658,127.24683 L 87.653658,118.15308 L 72.028658,118.15308 z M 88.153658,118.15308 L 88.153658,127.24683 L 108.3724,127.24683 L 108.3724,118.15308 L 88.153658,118.15308 z M 72.028658,127.74683 L 72.028658,136.84058 L 74.778658,136.84058 L 74.778658,127.74683 L 72.028658,127.74683 z M 75.278658,127.74683 L 75.278658,136.84058 L 100.52865,136.84058 L 100.52865,127.74683 L 75.278658,127.74683 z M 101.02865,127.74683 L 101.02865,136.84058 L 108.3724,136.84058 L 108.3724,127.74683 L 101.02865,127.74683 z M 72.028658,137.34058 L 72.028658,146.43432 L 87.653658,146.43432 L 87.653658,137.34058 L 72.028658,137.34058 z M 88.153658,137.34058 L 88.153658,146.43432 L 108.3724,146.43432 L 108.3724,137.34058 L 88.153658,137.34058 z M 72.028658,146.93432 L 72.028658,156.02807 L 74.778658,156.02807 L 74.778658,146.93432 L 72.028658,146.93432 z M 75.278658,146.93432 L 75.278658,156.02807 L 100.52865,156.02807 L 100.52865,146.93432 L 75.278658,146.93432 z M 101.02865,146.93432 L 101.02865,156.02807 L 108.3724,156.02807 L 108.3724,146.93432 L 101.02865,146.93432 z M 72.028658,156.52807 L 72.028658,165.62182 L 87.653658,165.62182 L 87.653658,156.52807 L 72.028658,156.52807 z M 88.153658,156.52807 L 88.153658,165.62182 L 108.3724,165.62182 L 108.3724,156.52807 L 88.153658,156.52807 z M 72.028658,166.12182 L 72.028658,175.21557 L 74.778658,175.21557 L 74.778658,166.12182 L 72.028658,166.12182 z M 75.278658,166.12182 L 75.278658,175.21557 L 100.52865,175.21557 L 100.52865,166.12182 L 75.278658,166.12182 z M 101.02865,166.12182 L 101.02865,175.21557 L 108.3724,175.21557 L 108.3724,166.12182 L 101.02865,166.12182 z "
         style="opacity:1;color:#000000;fill:#ffd42a;fill-opacity:1;fill-rule:evenodd;stroke:#c8ab37;stroke-width:0.49543652;stroke-linecap:butt;stroke-linejoin:miter;marker:none;marker-start:none;marker-mid:none;marker-end:none;stroke-miterlimit:4;stroke-dasharray:none;stroke-dashoffset:0;stroke-opacity:1;visibility:visible;display:inline;overflow:visible;enable-background:accumulate" />
      <path
         id="use2319"
         d="M 74.15625,234.34375 C 74.15625,234.34375 74.247171,234.79787 74.375,235.5 L 91.1875,235.5 L 91.1875,234.34375 L 74.15625,234.34375 z M 91.6875,234.34375 L 91.6875,235.5 L 126.03125,235.5 L 126.03125,234.34375 L 91.6875,234.34375 z M 126.53125,234.34375 L 126.53125,235.5 L 160.875,235.5 L 160.875,234.34375 L 126.53125,234.34375 z M 161.375,234.34375 L 161.375,235.5 L 195.71875,235.5 L 195.71875,234.34375 L 161.375,234.34375 z M 196.21875,234.34375 L 196.21875,235.5 L 230.5625,235.5 L 230.5625,234.34375 L 196.21875,234.34375 z M 231.0625,234.34375 L 231.0625,235.5 L 247.625,235.5 C 247.65817,235.12008 247.68303,234.72534 247.71875,234.34375 L 231.0625,234.34375 z M 74.46875,236 C 74.879484,238.35574 75.570481,243.27102 75.78125,250.28125 L 108.625,250.28125 L 108.625,236 L 74.46875,236 z M 109.125,236 L 109.125,250.28125 L 143.46875,250.28125 L 143.46875,236 L 109.125,236 z M 143.96875,236 L 143.96875,250.28125 L 178.3125,250.28125 L 178.3125,236 L 143.96875,236 z M 178.8125,236 L 178.8125,250.28125 L 213.15625,250.28125 L 213.15625,236 L 178.8125,236 z M 213.65625,236 L 213.65625,250.28125 L 246.9375,250.28125 C 246.95092,245.65516 247.17905,240.90607 247.59375,236 L 213.65625,236 z M 75.8125,250.78125 C 75.91981,254.91992 75.838016,259.77075 75.40625,265.0625 L 91.1875,265.0625 L 91.1875,250.78125 L 75.8125,250.78125 z M 91.6875,250.78125 L 91.6875,265.0625 L 126.03125,265.0625 L 126.03125,250.78125 L 91.6875,250.78125 z M 126.53125,250.78125 L 126.53125,265.0625 L 160.875,265.0625 L 160.875,250.78125 L 126.53125,250.78125 z M 161.375,250.78125 L 161.375,265.0625 L 195.71875,265.0625 L 195.71875,250.78125 L 161.375,250.78125 z M 196.21875,250.78125 L 196.21875,265.0625 L 230.5625,265.0625 L 230.5625,250.78125 L 196.21875,250.78125 z M 231.0625,250.78125 L 231.0625,265.0625 L 247.5625,265.0625 C 247.16102,260.46926 246.93781,255.68909 246.9375,250.78125 L 231.0625,250.78125 z M 75.375,265.5625 C 75.131989,268.40864 74.755186,271.36246 74.28125,274.46875 L 74.28125,279.84375 L 108.625,279.84375 L 108.625,265.5625 L 75.375,265.5625 z M 109.125,265.5625 L 109.125,279.84375 L 143.46875,279.84375 L 143.46875,265.5625 L 109.125,265.5625 z M 143.96875,265.5625 L 143.96875,279.84375 L 178.3125,279.84375 L 178.3125,265.5625 L 143.96875,265.5625 z M 178.8125,265.5625 L 178.8125,279.84375 L 213.15625,279.84375 L 213.15625,265.5625 L 178.8125,265.5625 z M 213.65625,265.5625 L 213.65625,279.84375 L 248,279.84375 L 248,269.28125 C 247.85892,268.05066 247.73866,266.81657 247.625,265.5625 L 213.65625,265.5625 z M 248.5,273.28125 L 248.5,279.84375 L 249.59375,279.84375 C 249.19469,277.694 248.81438,275.51105 248.5,273.28125 z M 73.78125,277.53125 C 73.646704,278.29534 73.494429,279.06719 73.34375,279.84375 L 73.78125,279.84375 L 73.78125,277.53125 z M 73.28125,280.34375 C 72.376056,284.91592 71.175097,289.6729 69.625,294.59375 L 91.1875,294.59375 L 91.1875,280.34375 L 73.28125,280.34375 z M 91.6875,280.34375 L 91.6875,294.59375 L 126.03125,294.59375 L 126.03125,280.34375 L 91.6875,280.34375 z M 126.53125,280.34375 L 126.53125,294.59375 L 160.875,294.59375 L 160.875,280.34375 L 126.53125,280.34375 z M 161.375,280.34375 L 161.375,294.59375 L 195.71875,294.59375 L 195.71875,280.34375 L 161.375,280.34375 z M 196.21875,280.34375 L 196.21875,294.59375 L 230.5625,294.59375 L 230.5625,280.34375 L 196.21875,280.34375 z M 231.0625,280.34375 L 231.0625,294.59375 L 253.09375,294.59375 C 251.76219,290.05157 250.59605,285.31395 249.65625,280.34375 L 231.0625,280.34375 z M 69.46875,295.125 C 67.983151,299.77702 66.157372,304.56028 63.96875,309.40625 L 73.78125,309.40625 L 73.78125,295.125 L 69.46875,295.125 z M 74.28125,295.125 L 74.28125,309.40625 L 108.625,309.40625 L 108.625,295.125 L 74.28125,295.125 z M 109.125,295.125 L 109.125,309.40625 L 143.46875,309.40625 L 143.46875,295.125 L 109.125,295.125 z M 143.96875,295.125 L 143.96875,309.40625 L 178.3125,309.40625 L 178.3125,295.125 L 143.96875,295.125 z M 178.8125,295.125 L 178.8125,309.40625 L 213.15625,309.40625 L 213.15625,295.125 L 178.8125,295.125 z M 213.65625,295.125 L 213.65625,309.40625 L 248,309.40625 L 248,295.125 L 213.65625,295.125 z M 248.5,295.125 L 248.5,309.40625 L 258.3125,309.40625 C 256.45116,304.90495 254.74247,300.14958 253.25,295.125 L 248.5,295.125 z M 63.71875,309.90625 C 61.734735,314.25029 59.486888,318.64904 56.84375,323.0625 L 56.84375,324.15625 L 91.1875,324.15625 L 91.1875,309.90625 L 63.71875,309.90625 z M 91.6875,309.90625 L 91.6875,324.15625 L 126.03125,324.15625 L 126.03125,309.90625 L 91.6875,309.90625 z M 126.53125,309.90625 L 126.53125,324.15625 L 160.875,324.15625 L 160.875,309.90625 L 126.53125,309.90625 z M 161.375,309.90625 L 161.375,324.15625 L 195.71875,324.15625 L 195.71875,309.90625 L 161.375,309.90625 z M 196.21875,309.90625 L 196.21875,324.15625 L 230.5625,324.15625 L 230.5625,309.90625 L 196.21875,309.90625 z M 231.0625,309.90625 L 231.0625,324.15625 L 265.375,324.15625 C 262.94176,319.74188 260.65469,314.98718 258.53125,309.90625 L 231.0625,309.90625 z M 56.34375,323.875 C 56.284871,323.97176 56.21547,324.05949 56.15625,324.15625 L 56.34375,324.15625 L 56.34375,323.875 z M 55.84375,324.65625 C 52.896334,329.42537 49.521119,334.225 45.6875,338.96875 L 73.78125,338.96875 L 73.78125,324.65625 L 55.84375,324.65625 z M 74.28125,324.65625 L 74.28125,338.96875 L 108.625,338.96875 L 108.625,324.65625 L 74.28125,324.65625 z M 109.125,324.65625 L 109.125,338.96875 L 143.46875,338.96875 L 143.46875,324.65625 L 109.125,324.65625 z M 143.96875,324.65625 L 143.96875,338.96875 L 178.3125,338.96875 L 178.3125,324.65625 L 143.96875,324.65625 z M 178.8125,324.65625 L 178.8125,338.96875 L 213.15625,338.96875 L 213.15625,324.65625 L 178.8125,324.65625 z M 213.65625,324.65625 L 213.65625,338.96875 L 248,338.96875 L 248,324.65625 L 213.65625,324.65625 z M 248.5,324.65625 L 248.5,338.96875 L 274.71875,338.96875 C 271.63626,334.67025 268.57006,329.89407 265.65625,324.65625 L 248.5,324.65625 z M 45.28125,339.46875 C 41.351152,344.28679 36.93195,349.06467 31.96875,353.75 L 56.34375,353.75 L 56.34375,339.46875 L 45.28125,339.46875 z M 56.84375,339.46875 L 56.84375,353.75 L 91.1875,353.75 L 91.1875,339.46875 L 56.84375,339.46875 z M 91.6875,339.46875 L 91.6875,353.75 L 126.03125,353.75 L 126.03125,339.46875 L 91.6875,339.46875 z M 126.53125,339.46875 L 126.53125,353.75 L 160.875,353.75 L 160.875,339.46875 L 126.53125,339.46875 z M 161.375,339.46875 L 161.375,353.75 L 195.71875,353.75 L 195.71875,339.46875 L 161.375,339.46875 z M 196.21875,339.46875 L 196.21875,353.75 L 230.5625,353.75 L 230.5625,339.46875 L 196.21875,339.46875 z M 231.0625,339.46875 L 231.0625,353.75 L 265.4375,353.75 L 265.4375,339.46875 L 231.0625,339.46875 z M 265.9375,339.46875 L 265.9375,353.75 L 286.875,353.75 C 283.14704,349.76676 279.08391,345.02869 275.0625,339.46875 L 265.9375,339.46875 z M 31.40625,354.25 C 26.200232,359.11829 20.424709,363.92529 13.96875,368.53125 L 38.9375,368.53125 L 38.9375,354.25 L 31.40625,354.25 z M 39.4375,354.25 L 39.4375,368.53125 L 73.78125,368.53125 L 73.78125,354.25 L 39.4375,354.25 z M 74.28125,354.25 L 74.28125,368.53125 L 108.625,368.53125 L 108.625,354.25 L 74.28125,354.25 z M 109.125,354.25 L 109.125,368.53125 L 143.46875,368.53125 L 143.46875,354.25 L 109.125,354.25 z M 143.96875,354.25 L 143.96875,368.53125 L 178.3125,368.53125 L 178.3125,354.25 L 143.96875,354.25 z M 178.8125,354.25 L 178.8125,368.53125 L 213.15625,368.53125 L 213.15625,354.25 L 178.8125,354.25 z M 213.65625,354.25 L 213.65625,368.53125 L 248,368.53125 L 248,354.25 L 213.65625,354.25 z M 248.5,354.25 L 248.5,368.53125 L 282.84375,368.53125 L 282.84375,354.25 L 248.5,354.25 z M 283.34375,354.25 L 283.34375,368.53125 L 303.21875,368.53125 C 300.99432,366.92723 294.84958,362.19076 287.34375,354.25 L 283.34375,354.25 z M 13.25,369.03125 C 12.832404,369.32619 12.423047,369.61267 12,369.90625 L 11.78125,383.3125 L 21.5,383.3125 L 21.5,369.03125 L 13.25,369.03125 z M 22,369.03125 L 22,383.3125 L 56.34375,383.3125 L 56.34375,369.03125 L 22,369.03125 z M 56.84375,369.03125 L 56.84375,383.3125 L 91.1875,383.3125 L 91.1875,369.03125 L 56.84375,369.03125 z M 91.6875,369.03125 L 91.6875,383.3125 L 126.03125,383.3125 L 126.03125,369.03125 L 91.6875,369.03125 z M 126.53125,369.03125 L 126.53125,383.3125 L 160.875,383.3125 L 160.875,369.03125 L 126.53125,369.03125 z M 161.375,369.03125 L 161.375,383.3125 L 195.71875,383.3125 L 195.71875,369.03125 L 161.375,369.03125 z M 196.21875,369.03125 L 196.21875,383.3125 L 230.5625,383.3125 L 230.5625,369.03125 L 196.21875,369.03125 z M 231.0625,369.03125 L 231.0625,383.3125 L 265.4375,383.3125 L 265.4375,369.03125 L 231.0625,369.03125 z M 265.9375,369.03125 L 265.9375,383.3125 L 300.28125,383.3125 L 300.28125,369.03125 L 265.9375,369.03125 z M 300.78125,369.03125 L 300.78125,383.3125 L 304.28125,383.3125 L 304.15625,369.1875 C 304.15625,369.1875 303.98439,369.06314 303.9375,369.03125 L 300.78125,369.03125 z M 11.75,383.8125 L 11.5,398.0625 L 38.9375,398.0625 L 38.9375,383.8125 L 11.75,383.8125 z M 39.4375,383.8125 L 39.4375,398.0625 L 73.78125,398.0625 L 73.78125,383.8125 L 39.4375,383.8125 z M 74.28125,383.8125 L 74.28125,398.0625 L 108.625,398.0625 L 108.625,383.8125 L 74.28125,383.8125 z M 109.125,383.8125 L 109.125,398.0625 L 143.46875,398.0625 L 143.46875,383.8125 L 109.125,383.8125 z M 143.96875,383.8125 L 143.96875,398.0625 L 178.3125,398.0625 L 178.3125,383.8125 L 143.96875,383.8125 z M 178.8125,383.8125 L 178.8125,398.0625 L 213.15625,398.0625 L 213.15625,383.8125 L 178.8125,383.8125 z M 213.65625,383.8125 L 213.65625,398.0625 L 248,398.0625 L 248,383.8125 L 213.65625,383.8125 z M 248.5,383.8125 L 248.5,398.0625 L 282.84375,398.0625 L 282.84375,383.8125 L 248.5,383.8125 z M 283.34375,383.8125 L 283.34375,398.0625 L 304.40625,398.0625 L 304.28125,383.8125 L 283.34375,383.8125 z M 11.5,398.5625 L 11.25,412.875 L 21.5,412.875 L 21.5,398.5625 L 11.5,398.5625 z M 22,398.5625 L 22,412.875 L 56.34375,412.875 L 56.34375,398.5625 L 22,398.5625 z M 56.84375,398.5625 L 56.84375,412.875 L 91.1875,412.875 L 91.1875,398.5625 L 56.84375,398.5625 z M 91.6875,398.5625 L 91.6875,412.875 L 126.03125,412.875 L 126.03125,398.5625 L 91.6875,398.5625 z M 126.53125,398.5625 L 126.53125,412.875 L 160.875,412.875 L 160.875,398.5625 L 126.53125,398.5625 z M 161.375,398.5625 L 161.375,412.875 L 195.71875,412.875 L 195.71875,398.5625 L 161.375,398.5625 z M 196.21875,398.5625 L 196.21875,412.875 L 230.5625,412.875 L 230.5625,398.5625 L 196.21875,398.5625 z M 231.0625,398.5625 L 231.0625,412.875 L 265.4375,412.875 L 265.4375,398.5625 L 231.0625,398.5625 z M 265.9375,398.5625 L 265.9375,412.875 L 300.28125,412.875 L 300.28125,398.5625 L 265.9375,398.5625 z M 300.78125,398.5625 L 300.78125,412.875 L 304.53125,412.875 L 304.40625,398.5625 L 300.78125,398.5625 z M 11.25,413.375 L 11,427.625 L 38.9375,427.625 L 38.9375,413.375 L 11.25,413.375 z M 39.4375,413.375 L 39.4375,427.625 L 73.78125,427.625 L 73.78125,413.375 L 39.4375,413.375 z M 74.28125,413.375 L 74.28125,427.625 L 108.625,427.625 L 108.625,413.375 L 74.28125,413.375 z M 109.125,413.375 L 109.125,427.625 L 143.46875,427.625 L 143.46875,413.375 L 109.125,413.375 z M 143.96875,413.375 L 143.96875,427.625 L 178.3125,427.625 L 178.3125,413.375 L 143.96875,413.375 z M 178.8125,413.375 L 178.8125,427.625 L 213.15625,427.625 L 213.15625,413.375 L 178.8125,413.375 z M 213.65625,413.375 L 213.65625,427.625 L 248,427.625 L 248,413.375 L 213.65625,413.375 z M 248.5,413.375 L 248.5,427.625 L 282.84375,427.625 L 282.84375,413.375 L 248.5,413.375 z M 283.34375,413.375 L 283.34375,427.625 L 304.65625,427.625 L 304.53125,413.375 L 283.34375,413.375 z M 11,428.125 L 10.75,442.4375 L 21.5,442.4375 L 21.5,428.125 L 11,428.125 z M 22,428.125 L 22,442.4375 L 56.34375,442.4375 L 56.34375,428.125 L 22,428.125 z M 56.84375,428.125 L 56.84375,442.4375 L 91.1875,442.4375 L 91.1875,428.125 L 56.84375,428.125 z M 91.6875,428.125 L 91.6875,442.4375 L 126.03125,442.4375 L 126.03125,428.125 L 91.6875,428.125 z M 126.53125,428.125 L 126.53125,442.4375 L 160.875,442.4375 L 160.875,428.125 L 126.53125,428.125 z M 161.375,428.125 L 161.375,442.4375 L 195.71875,442.4375 L 195.71875,428.125 L 161.375,428.125 z M 196.21875,428.125 L 196.21875,442.4375 L 230.5625,442.4375 L 230.5625,428.125 L 196.21875,428.125 z M 231.0625,428.125 L 231.0625,442.4375 L 265.4375,442.4375 L 265.4375,428.125 L 231.0625,428.125 z M 265.9375,428.125 L 265.9375,442.4375 L 300.28125,442.4375 L 300.28125,428.125 L 265.9375,428.125 z M 300.78125,428.125 L 300.78125,442.4375 L 304.8125,442.4375 L 304.6875,428.125 L 300.78125,428.125 z M 10.71875,442.9375 L 10.59375,450.65625 L 38.9375,450.65625 L 38.9375,442.9375 L 10.71875,442.9375 z M 39.4375,442.9375 L 39.4375,450.65625 L 73.78125,450.65625 L 73.78125,442.9375 L 39.4375,442.9375 z M 74.28125,442.9375 L 74.28125,450.65625 L 108.625,450.65625 L 108.625,442.9375 L 74.28125,442.9375 z M 109.125,442.9375 L 109.125,450.65625 L 143.46875,450.65625 L 143.46875,442.9375 L 109.125,442.9375 z M 143.96875,442.9375 L 143.96875,450.65625 L 178.3125,450.65625 L 178.3125,442.9375 L 143.96875,442.9375 z M 178.8125,442.9375 L 178.8125,450.65625 L 213.15625,450.65625 L 213.15625,442.9375 L 178.8125,442.9375 z M 213.65625,442.9375 L 213.65625,450.65625 L 248,450.65625 L 248,442.9375 L 213.65625,442.9375 z M 248.5,442.9375 L 248.5,450.65625 L 282.84375,450.65625 L 282.84375,442.9375 L 248.5,442.9375 z M 283.34375,442.9375 L 283.34375,450.65625 L 304.875,450.65625 L 304.8125,442.9375 L 283.34375,442.9375 z "
         style="opacity:1;color:#000000;fill:#ffd42a;fill-opacity:1;fill-rule:evenodd;stroke:#c8ab37;stroke-width:0.49543652;stroke-linecap:butt;stroke-linejoin:miter;marker:none;marker-start:none;marker-mid:none;marker-end:none;stroke-miterlimit:4;stroke-dasharray:none;stroke-dashoffset:0;stroke-opacity:1;visibility:visible;display:inline;overflow:visible;enable-background:accumulate" />
      <rect
         y="114.05673"
         x="71.468285"
         height="3.2829957"
         width="38.890873"
         id="rect6858"
         style="opacity:1;color:#000000;fill:#aa8800;fill-opacity:1;fill-rule:evenodd;stroke:#c8ab37;stroke-width:0.59531796;stroke-linecap:butt;stroke-linejoin:miter;marker:none;marker-start:none;marker-mid:none;marker-end:none;stroke-miterlimit:4;stroke-dasharray:none;stroke-dashoffset:0;stroke-opacity:1;visibility:visible;display:inline;overflow:visible;enable-background:accumulate" />
      <path
         id="path6886"
         d="M 162.31293,112.23674 C 155.74028,112.23674 150.4137,120.18928 150.41372,130.00225 L 150.41372,178.17519 L 174.24945,178.17519 L 174.24945,130.00225 C 174.24945,120.18928 168.88559,112.23675 162.31293,112.23674 z "
         style="opacity:1;color:#000000;fill:#a0892c;fill-opacity:1;fill-rule:evenodd;stroke:#c8ab37;stroke-width:0.72259581;stroke-linecap:butt;stroke-linejoin:miter;marker:none;marker-start:none;marker-mid:none;marker-end:none;stroke-miterlimit:4;stroke-dasharray:none;stroke-dashoffset:0;stroke-opacity:1;visibility:visible;display:inline;overflow:visible;enable-background:accumulate" />
      <path
         id="path6888"
         d="M 234.17276,126.97423 C 229.0828,126.97423 224.95784,133.17963 224.95785,140.83675 L 224.95785,178.42634 L 243.41656,178.42634 L 243.41656,140.83675 C 243.41656,133.17963 239.26271,126.97424 234.17276,126.97423 z "
         style="opacity:1;color:#000000;fill:#a0892c;fill-opacity:1;fill-rule:evenodd;stroke:#c8ab37;stroke-width:0.56171274;stroke-linecap:butt;stroke-linejoin:miter;marker:none;marker-start:none;marker-mid:none;marker-end:none;stroke-miterlimit:4;stroke-dasharray:none;stroke-dashoffset:0;stroke-opacity:1;visibility:visible;display:inline;overflow:visible;enable-background:accumulate" />
      <path
         id="path6890"
         d="M 91.287063,126.59022 C 86.197109,126.59022 82.072142,132.79562 82.072154,140.45274 L 82.072154,178.04233 L 100.53086,178.04233 L 100.53086,140.45274 C 100.53086,132.79562 96.377017,126.59023 91.287063,126.59022 z "
         style="opacity:1;color:#000000;fill:#a0892c;fill-opacity:1;fill-rule:evenodd;stroke:#c8ab37;stroke-width:0.56171274;stroke-linecap:butt;stroke-linejoin:miter;marker:none;marker-start:none;marker-mid:none;marker-end:none;stroke-miterlimit:4;stroke-dasharray:none;stroke-dashoffset:0;stroke-opacity:1;visibility:visible;display:inline;overflow:visible;enable-background:accumulate" />
      <path
         id="path2193"
         d="M 41.78125,152.875 L 41.78125,160.28125 L 60.6875,160.28125 L 60.6875,152.875 L 41.78125,152.875 z M 79.28125,152.875 L 79.28125,160.28125 L 97.84375,160.28125 L 97.84375,152.875 L 79.28125,152.875 z M 112.84375,152.875 L 112.84375,160.28125 L 132.78125,160.28125 L 132.78125,152.875 L 112.84375,152.875 z M 133.28125,152.875 L 133.28125,160.28125 L 133.5625,160.28125 L 133.5625,152.875 L 133.28125,152.875 z M 150.6875,152.875 L 150.6875,160.28125 L 167.625,160.28125 L 167.625,152.875 L 150.6875,152.875 z M 168.125,152.875 L 168.125,160.28125 L 173.1875,160.28125 L 173.1875,152.875 L 168.125,152.875 z M 190.34375,152.875 L 190.34375,160.28125 L 202.46875,160.28125 L 202.46875,152.875 L 190.34375,152.875 z M 202.96875,152.875 L 202.96875,160.28125 L 209.625,160.28125 L 209.625,152.875 L 202.96875,152.875 z M 226.78125,152.875 L 226.78125,160.28125 L 237.3125,160.28125 L 237.3125,152.875 L 226.78125,152.875 z M 237.8125,152.875 L 237.8125,160.28125 L 246.40625,160.28125 L 246.40625,152.875 L 237.8125,152.875 z M 263.5625,152.875 L 263.5625,160.28125 L 272.15625,160.28125 L 272.15625,152.875 L 263.5625,152.875 z M 272.65625,152.875 L 272.65625,160.28125 L 280.34375,160.28125 L 280.34375,152.875 L 272.65625,152.875 z M 41.78125,160.78125 L 41.78125,174.90625 L 45.65625,174.90625 L 45.65625,160.78125 L 41.78125,160.78125 z M 46.15625,160.78125 L 46.15625,174.90625 L 80.5,174.90625 L 80.5,160.78125 L 79.28125,160.78125 L 79.28125,166.65625 L 73.90625,166.65625 L 73.90625,166.8125 L 60.6875,166.8125 L 60.6875,160.78125 L 46.15625,160.78125 z M 81,160.78125 L 81,174.90625 L 115.34375,174.90625 L 115.34375,160.78125 L 112.84375,160.78125 L 112.84375,166.46875 L 97.84375,166.46875 L 97.84375,160.78125 L 81,160.78125 z M 115.84375,160.78125 L 115.84375,174.90625 L 150.21875,174.90625 L 150.21875,166.8125 L 133.5625,166.8125 L 133.5625,160.78125 L 115.84375,160.78125 z M 150.71875,160.78125 L 150.71875,174.90625 L 185.0625,174.90625 L 185.0625,166.28125 L 173.1875,166.28125 L 173.1875,160.78125 L 150.71875,160.78125 z M 190.34375,160.78125 L 190.34375,166.28125 L 185.5625,166.28125 L 185.5625,174.90625 L 219.90625,174.90625 L 219.90625,166.09375 L 209.625,166.09375 L 209.625,160.78125 L 190.34375,160.78125 z M 226.78125,160.78125 L 226.78125,166.09375 L 220.40625,166.09375 L 220.40625,174.90625 L 254.75,174.90625 L 254.75,166.46875 L 246.40625,166.46875 L 246.40625,160.78125 L 226.78125,160.78125 z M 263.5625,160.78125 L 263.5625,166.46875 L 255.25,166.46875 L 255.25,174.90625 L 280.34375,174.90625 L 280.34375,160.78125 L 263.5625,160.78125 z M 41.78125,175.40625 L 41.78125,189.5625 L 63.09375,189.5625 L 63.09375,175.40625 L 41.78125,175.40625 z M 63.59375,175.40625 L 63.59375,189.5625 L 97.9375,189.5625 L 97.9375,175.40625 L 63.59375,175.40625 z M 98.4375,175.40625 L 98.4375,189.5625 L 132.78125,189.5625 L 132.78125,175.40625 L 98.4375,175.40625 z M 133.28125,175.40625 L 133.28125,189.5625 L 167.625,189.5625 L 167.625,175.40625 L 133.28125,175.40625 z M 168.125,175.40625 L 168.125,189.5625 L 202.46875,189.5625 L 202.46875,175.40625 L 168.125,175.40625 z M 202.96875,175.40625 L 202.96875,189.5625 L 237.3125,189.5625 L 237.3125,175.40625 L 202.96875,175.40625 z M 237.8125,175.40625 L 237.8125,189.5625 L 272.15625,189.5625 L 272.15625,175.40625 L 237.8125,175.40625 z M 272.65625,175.40625 L 272.65625,189.5625 L 280.34375,189.5625 L 280.34375,175.40625 L 272.65625,175.40625 z M 41.78125,190.0625 L 41.78125,193.96875 L 45.65625,193.96875 L 45.65625,190.0625 L 41.78125,190.0625 z M 46.15625,190.0625 L 46.15625,193.96875 L 80.5,193.96875 L 80.5,190.0625 L 46.15625,190.0625 z M 81,190.0625 L 81,193.96875 L 115.34375,193.96875 L 115.34375,190.0625 L 81,190.0625 z M 115.84375,190.0625 L 115.84375,193.96875 L 150.21875,193.96875 L 150.21875,190.0625 L 115.84375,190.0625 z M 150.71875,190.0625 L 150.71875,193.96875 L 185.0625,193.96875 L 185.0625,190.0625 L 150.71875,190.0625 z M 185.5625,190.0625 L 185.5625,193.96875 L 219.90625,193.96875 L 219.90625,190.0625 L 185.5625,190.0625 z M 220.40625,190.0625 L 220.40625,193.96875 L 254.75,193.96875 L 254.75,190.0625 L 220.40625,190.0625 z M 255.25,190.0625 L 255.25,193.96875 L 280.34375,193.96875 L 280.34375,190.0625 L 255.25,190.0625 z "
         style="opacity:1;color:#000000;fill:#ffd42a;fill-opacity:1;fill-rule:evenodd;stroke:#c8ab37;stroke-width:1.5;stroke-linecap:butt;stroke-linejoin:miter;marker:none;marker-start:none;marker-mid:none;marker-end:none;stroke-miterlimit:4;stroke-dasharray:none;stroke-dashoffset:0;stroke-opacity:1;visibility:visible;display:inline;overflow:visible;enable-background:accumulate" />
      <path
         id="path6913"
         d="M 65.194972,88.982724 L 65.194972,107.17022 L 116.63247,107.17022 L 116.63247,88.982724 L 108.03872,88.982724 L 108.03872,98.607721 L 97.694972,98.607721 L 97.694972,88.982724 L 84.851222,88.982724 L 84.851222,98.263971 L 74.476222,98.263971 L 74.476222,88.982724 L 65.194972,88.982724 z "
         style="opacity:1;color:#000000;fill:#ffd42a;fill-opacity:1;fill-rule:evenodd;stroke:#c8ab37;stroke-width:0.49543652;stroke-linecap:butt;stroke-linejoin:miter;marker:none;marker-start:none;marker-mid:none;marker-end:none;stroke-miterlimit:4;stroke-dasharray:none;stroke-dashoffset:0;stroke-opacity:1;visibility:visible;display:inline;overflow:visible;enable-background:accumulate" />
      <rect
         y="107.2729"
         x="69.30658"
         height="6.6071429"
         width="43.214287"
         id="rect6917"
         style="opacity:1;color:#000000;fill:#ffdd55;fill-opacity:1;fill-rule:evenodd;stroke:#c8ab37;stroke-width:0.59531796;stroke-linecap:butt;stroke-linejoin:miter;marker:none;marker-start:none;marker-mid:none;marker-end:none;stroke-miterlimit:4;stroke-dasharray:none;stroke-dashoffset:0;stroke-opacity:1;visibility:visible;display:inline;overflow:visible;enable-background:accumulate" />
      <rect
         y="114.25494"
         x="214.66171"
         height="3.2829957"
         width="38.890873"
         id="rect6919"
         style="opacity:1;color:#000000;fill:#aa8800;fill-opacity:1;fill-rule:evenodd;stroke:#c8ab37;stroke-width:0.59531796;stroke-linecap:butt;stroke-linejoin:miter;marker:none;marker-start:none;marker-mid:none;marker-end:none;stroke-miterlimit:4;stroke-dasharray:none;stroke-dashoffset:0;stroke-opacity:1;visibility:visible;display:inline;overflow:visible;enable-background:accumulate" />
      <path
         id="path6921"
         d="M 208.38839,89.180934 L 208.38839,107.36843 L 259.82589,107.36843 L 259.82589,89.180934 L 251.23214,89.180934 L 251.23214,98.805931 L 240.8884,98.805931 L 240.8884,89.180934 L 228.04464,89.180934 L 228.04464,98.462181 L 217.66964,98.462181 L 217.66964,89.180934 L 208.38839,89.180934 z "
         style="opacity:1;color:#000000;fill:#ffd42a;fill-opacity:1;fill-rule:evenodd;stroke:#c8ab37;stroke-width:0.49543652;stroke-linecap:butt;stroke-linejoin:miter;marker:none;marker-start:none;marker-mid:none;marker-end:none;stroke-miterlimit:4;stroke-dasharray:none;stroke-dashoffset:0;stroke-opacity:1;visibility:visible;display:inline;overflow:visible;enable-background:accumulate" />
      <rect
         y="107.47111"
         x="212.5"
         height="6.6071429"
         width="43.214287"
         id="rect6923"
         style="opacity:1;color:#000000;fill:#ffdd55;fill-opacity:1;fill-rule:evenodd;stroke:#c8ab37;stroke-width:0.59531796;stroke-linecap:butt;stroke-linejoin:miter;marker:none;marker-start:none;marker-mid:none;marker-end:none;stroke-miterlimit:4;stroke-dasharray:none;stroke-dashoffset:0;stroke-opacity:1;visibility:visible;display:inline;overflow:visible;enable-background:accumulate" />
      <rect
         y="87.183617"
         x="134.46428"
         height="6.0714283"
         width="56.964287"
         id="rect6925"
         style="opacity:1;color:#000000;fill:#aa8800;fill-opacity:1;fill-rule:evenodd;stroke:#c8ab37;stroke-width:0.59531796;stroke-linecap:butt;stroke-linejoin:miter;marker:none;marker-start:none;marker-mid:none;marker-end:none;stroke-miterlimit:4;stroke-dasharray:none;stroke-dashoffset:0;stroke-opacity:1;visibility:visible;display:inline;overflow:visible;enable-background:accumulate" />
      <rect
         y="234.86218"
         x="71.071426"
         height="5"
         width="178.92857"
         id="rect9909"
         style="opacity:1;color:#000000;fill:#aa8800;fill-opacity:1;fill-rule:evenodd;stroke:#c8ab37;stroke-width:0.49543652;stroke-linecap:butt;stroke-linejoin:miter;marker:none;marker-start:none;marker-mid:none;marker-end:none;stroke-miterlimit:4;stroke-dasharray:none;stroke-dashoffset:0;stroke-opacity:1;visibility:visible;display:inline;overflow:visible;enable-background:accumulate" />
      <rect
         y="231.29076"
         x="66.785713"
         height="5.3571429"
         width="185"
         id="rect9907"
         style="opacity:1;color:#000000;fill:#ffdd55;fill-opacity:1;fill-rule:evenodd;stroke:#c8ab37;stroke-width:0.49543652;stroke-linecap:butt;stroke-linejoin:miter;marker:none;marker-start:none;marker-mid:none;marker-end:none;stroke-miterlimit:4;stroke-dasharray:none;stroke-dashoffset:0;stroke-opacity:1;visibility:visible;display:inline;overflow:visible;enable-background:accumulate" />
      <rect
         y="193.44746"
         x="45.978867"
         height="5.5309906"
         width="233.54402"
         id="rect9911"
         style="opacity:1;color:#000000;fill:#aa8800;fill-opacity:1;fill-rule:evenodd;stroke:#c8ab37;stroke-width:0.59531796;stroke-linecap:butt;stroke-linejoin:miter;marker:none;marker-start:none;marker-mid:none;marker-end:none;stroke-miterlimit:4;stroke-dasharray:none;stroke-dashoffset:0;stroke-opacity:1;visibility:visible;display:inline;overflow:visible;enable-background:accumulate" />
      <rect
         y="189.49675"
         x="40.38501"
         height="5.9260616"
         width="241.46866"
         id="rect9913"
         style="opacity:1;color:#000000;fill:#ffdd55;fill-opacity:1;fill-rule:evenodd;stroke:#c8ab37;stroke-width:0.59531796;stroke-linecap:butt;stroke-linejoin:miter;marker:none;marker-start:none;marker-mid:none;marker-end:none;stroke-miterlimit:4;stroke-dasharray:none;stroke-dashoffset:0;stroke-opacity:1;visibility:visible;display:inline;overflow:visible;enable-background:accumulate" />
      <rect
         y="82.615746"
         x="132.07744"
         height="4.7982244"
         width="60.861691"
         id="rect9918"
         style="opacity:1;color:#000000;fill:#ffdd55;fill-opacity:1;fill-rule:evenodd;stroke:#c8ab37;stroke-width:0.59531796;stroke-linecap:butt;stroke-linejoin:miter;marker:none;marker-start:none;marker-mid:none;marker-end:none;stroke-miterlimit:4;stroke-dasharray:none;stroke-dashoffset:0;stroke-opacity:1;visibility:visible;display:inline;overflow:visible;enable-background:accumulate" />
      <rect
         y="78.408234"
         x="129.74747"
         height="5.8928571"
         width="64.64286"
         id="rect6927"
         style="opacity:1;color:#000000;fill:#ffdd55;fill-opacity:1;fill-rule:evenodd;stroke:#c8ab37;stroke-width:0.59531796;stroke-linecap:butt;stroke-linejoin:miter;marker:none;marker-start:none;marker-mid:none;marker-end:none;stroke-miterlimit:4;stroke-dasharray:none;stroke-dashoffset:0;stroke-opacity:1;visibility:visible;display:inline;overflow:visible;enable-background:accumulate" />
      <path
         id="rect6895"
         d="M 127.6984,54.162687 L 127.6984,80.212313 L 197.14981,80.212313 L 197.14981,54.162687 L 183.16307,54.162687 L 183.16307,65.219723 L 169.56217,65.219723 L 169.56217,54.162687 L 155.99342,54.162687 L 155.99342,64.876142 L 142.00668,64.876142 L 142.00668,54.162687 L 127.6984,54.162687 z "
         style="opacity:1;color:#000000;fill:#ffd42a;fill-opacity:1;fill-rule:evenodd;stroke:#c8ab37;stroke-width:0.49543652;stroke-linecap:butt;stroke-linejoin:miter;marker:none;marker-start:none;marker-mid:none;marker-end:none;stroke-miterlimit:4;stroke-dasharray:none;stroke-dashoffset:0;stroke-opacity:1;visibility:visible;display:inline;overflow:visible;enable-background:accumulate" />
      <path
         d="M 282.19196,441.6355 L 282.19196,449.35425 L 303.72321,449.35425 L 303.66071,441.6355 L 282.19196,441.6355 z M 282.19196,441.6355 L 303.66071,441.6355 L 303.72321,449.35425 L 282.19196,449.35425 L 282.19196,441.6355 z M 247.34821,441.6355 L 247.34821,449.35425 L 281.69196,449.35425 L 281.69196,441.6355 L 247.34821,441.6355 z M 247.34821,441.6355 L 281.69196,441.6355 L 281.69196,449.35425 L 247.34821,449.35425 L 247.34821,441.6355 z M 212.50446,441.6355 L 212.50446,449.35425 L 246.84821,449.35425 L 246.84821,441.6355 L 212.50446,441.6355 z M 212.50446,441.6355 L 246.84821,441.6355 L 246.84821,449.35425 L 212.50446,449.35425 L 212.50446,441.6355 z M 177.66071,441.6355 L 177.66071,449.35425 L 212.00446,449.35425 L 212.00446,441.6355 L 177.66071,441.6355 z M 177.66071,441.6355 L 212.00446,441.6355 L 212.00446,449.35425 L 177.66071,449.35425 L 177.66071,441.6355 z M 142.81696,441.6355 L 142.81696,449.35425 L 177.16071,449.35425 L 177.16071,441.6355 L 142.81696,441.6355 z M 142.81696,441.6355 L 177.16071,441.6355 L 177.16071,449.35425 L 142.81696,449.35425 L 142.81696,441.6355 z M 107.97321,441.6355 L 107.97321,449.35425 L 142.31696,449.35425 L 142.31696,441.6355 L 107.97321,441.6355 z M 107.97321,441.6355 L 142.31696,441.6355 L 142.31696,449.35425 L 107.97321,449.35425 L 107.97321,441.6355 z M 73.129456,441.6355 L 73.129456,449.35425 L 107.47321,449.35425 L 107.47321,441.6355 L 73.129456,441.6355 z M 73.129456,441.6355 L 107.47321,441.6355 L 107.47321,449.35425 L 73.129456,449.35425 L 73.129456,441.6355 z M 38.285706,441.6355 L 38.285706,449.35425 L 72.629456,449.35425 L 72.629456,441.6355 L 38.285706,441.6355 z M 38.285706,441.6355 L 72.629456,441.6355 L 72.629456,449.35425 L 38.285706,449.35425 L 38.285706,441.6355 z M 9.5669561,441.6355 L 9.4419561,449.35425 L 37.785706,449.35425 L 37.785706,441.6355 L 9.5669561,441.6355 z M 9.5669561,441.6355 L 37.785706,441.6355 L 37.785706,449.35425 L 9.4419561,449.35425 L 9.5669561,441.6355 z M 299.62946,426.85425 L 299.62946,441.1355 L 303.66071,441.1355 L 303.53571,426.85425 L 299.62946,426.85425 z M 299.62946,426.85425 L 303.53571,426.85425 L 303.66071,441.1355 L 299.62946,441.1355 L 299.62946,426.85425 z M 264.78571,426.85425 L 264.78571,441.1355 L 299.12946,441.1355 L 299.12946,426.85425 L 264.78571,426.85425 z M 264.78571,426.85425 L 299.12946,426.85425 L 299.12946,441.1355 L 264.78571,441.1355 L 264.78571,426.85425 z M 229.91071,426.85425 L 229.91071,441.1355 L 264.28571,441.1355 L 264.28571,426.85425 L 229.91071,426.85425 z M 229.91071,426.85425 L 264.28571,426.85425 L 264.28571,441.1355 L 229.91071,441.1355 L 229.91071,426.85425 z M 195.06696,426.85425 L 195.06696,441.1355 L 229.41071,441.1355 L 229.41071,426.85425 L 195.06696,426.85425 z M 195.06696,426.85425 L 229.41071,426.85425 L 229.41071,441.1355 L 195.06696,441.1355 L 195.06696,426.85425 z M 160.22321,426.85425 L 160.22321,441.1355 L 194.56696,441.1355 L 194.56696,426.85425 L 160.22321,426.85425 z M 160.22321,426.85425 L 194.56696,426.85425 L 194.56696,441.1355 L 160.22321,441.1355 L 160.22321,426.85425 z M 125.37946,426.85425 L 125.37946,441.1355 L 159.72321,441.1355 L 159.72321,426.85425 L 125.37946,426.85425 z M 125.37946,426.85425 L 159.72321,426.85425 L 159.72321,441.1355 L 125.37946,441.1355 L 125.37946,426.85425 z M 90.535706,426.85425 L 90.535706,441.1355 L 124.87946,441.1355 L 124.87946,426.85425 L 90.535706,426.85425 z M 90.535706,426.85425 L 124.87946,426.85425 L 124.87946,441.1355 L 90.535706,441.1355 L 90.535706,426.85425 z M 55.691956,426.85425 L 55.691956,441.1355 L 90.035706,441.1355 L 90.035706,426.85425 L 55.691956,426.85425 z M 55.691956,426.85425 L 90.035706,426.85425 L 90.035706,441.1355 L 55.691956,441.1355 L 55.691956,426.85425 z M 20.848206,426.85425 L 20.848206,441.1355 L 55.191956,441.1355 L 55.191956,426.85425 L 20.848206,426.85425 z M 20.848206,426.85425 L 55.191956,426.85425 L 55.191956,441.1355 L 20.848206,441.1355 L 20.848206,426.85425 z M 9.8482061,426.85425 L 9.5982061,441.1355 L 20.348206,441.1355 L 20.348206,426.85425 L 9.8482061,426.85425 z M 9.8482061,426.85425 L 20.348206,426.85425 L 20.348206,441.1355 L 9.5982061,441.1355 L 9.8482061,426.85425 z M 282.19196,412.073 L 282.19196,426.323 L 303.50446,426.323 L 303.37946,412.073 L 282.19196,412.073 z M 282.19196,412.073 L 303.37946,412.073 L 303.50446,426.323 L 282.19196,426.323 L 282.19196,412.073 z M 247.34821,412.073 L 247.34821,426.323 L 281.69196,426.323 L 281.69196,412.073 L 247.34821,412.073 z M 247.34821,412.073 L 281.69196,412.073 L 281.69196,426.323 L 247.34821,426.323 L 247.34821,412.073 z M 212.50446,412.073 L 212.50446,426.323 L 246.84821,426.323 L 246.84821,412.073 L 212.50446,412.073 z M 212.50446,412.073 L 246.84821,412.073 L 246.84821,426.323 L 212.50446,426.323 L 212.50446,412.073 z M 177.66071,412.073 L 177.66071,426.323 L 212.00446,426.323 L 212.00446,412.073 L 177.66071,412.073 z M 177.66071,412.073 L 212.00446,412.073 L 212.00446,426.323 L 177.66071,426.323 L 177.66071,412.073 z M 142.81696,412.073 L 142.81696,426.323 L 177.16071,426.323 L 177.16071,412.073 L 142.81696,412.073 z M 142.81696,412.073 L 177.16071,412.073 L 177.16071,426.323 L 142.81696,426.323 L 142.81696,412.073 z M 107.97321,412.073 L 107.97321,426.323 L 142.31696,426.323 L 142.31696,412.073 L 107.97321,412.073 z M 107.97321,412.073 L 142.31696,412.073 L 142.31696,426.323 L 107.97321,426.323 L 107.97321,412.073 z M 73.129456,412.073 L 73.129456,426.323 L 107.47321,426.323 L 107.47321,412.073 L 73.129456,412.073 z M 73.129456,412.073 L 107.47321,412.073 L 107.47321,426.323 L 73.129456,426.323 L 73.129456,412.073 z M 38.285706,412.073 L 38.285706,426.323 L 72.629456,426.323 L 72.629456,412.073 L 38.285706,412.073 z M 38.285706,412.073 L 72.629456,412.073 L 72.629456,426.323 L 38.285706,426.323 L 38.285706,412.073 z M 10.098206,412.073 L 9.8482061,426.323 L 37.785706,426.323 L 37.785706,412.073 L 10.098206,412.073 z M 10.098206,412.073 L 37.785706,412.073 L 37.785706,426.323 L 9.8482061,426.323 L 10.098206,412.073 z M 299.62946,397.29175 L 299.62946,411.573 L 303.37946,411.573 L 303.25446,397.29175 L 299.62946,397.29175 z M 299.62946,397.29175 L 303.25446,397.29175 L 303.37946,411.573 L 299.62946,411.573 L 299.62946,397.29175 z M 264.78571,397.29175 L 264.78571,411.573 L 299.12946,411.573 L 299.12946,397.29175 L 264.78571,397.29175 z M 264.78571,397.29175 L 299.12946,397.29175 L 299.12946,411.573 L 264.78571,411.573 L 264.78571,397.29175 z M 229.91071,397.29175 L 229.91071,411.573 L 264.28571,411.573 L 264.28571,397.29175 L 229.91071,397.29175 z M 229.91071,397.29175 L 264.28571,397.29175 L 264.28571,411.573 L 229.91071,411.573 L 229.91071,397.29175 z M 195.06696,397.29175 L 195.06696,411.573 L 229.41071,411.573 L 229.41071,397.29175 L 195.06696,397.29175 z M 195.06696,397.29175 L 229.41071,397.29175 L 229.41071,411.573 L 195.06696,411.573 L 195.06696,397.29175 z M 160.22321,397.29175 L 160.22321,411.573 L 194.56696,411.573 L 194.56696,397.29175 L 160.22321,397.29175 z M 160.22321,397.29175 L 194.56696,397.29175 L 194.56696,411.573 L 160.22321,411.573 L 160.22321,397.29175 z M 125.37946,397.29175 L 125.37946,411.573 L 159.72321,411.573 L 159.72321,397.29175 L 125.37946,397.29175 z M 125.37946,397.29175 L 159.72321,397.29175 L 159.72321,411.573 L 125.37946,411.573 L 125.37946,397.29175 z M 90.535706,397.29175 L 90.535706,411.573 L 124.87946,411.573 L 124.87946,397.29175 L 90.535706,397.29175 z M 90.535706,397.29175 L 124.87946,397.29175 L 124.87946,411.573 L 90.535706,411.573 L 90.535706,397.29175 z M 55.691956,397.29175 L 55.691956,411.573 L 90.035706,411.573 L 90.035706,397.29175 L 55.691956,397.29175 z M 55.691956,397.29175 L 90.035706,397.29175 L 90.035706,411.573 L 55.691956,411.573 L 55.691956,397.29175 z M 20.848206,397.29175 L 20.848206,411.573 L 55.191956,411.573 L 55.191956,397.29175 L 20.848206,397.29175 z M 20.848206,397.29175 L 55.191956,397.29175 L 55.191956,411.573 L 20.848206,411.573 L 20.848206,397.29175 z M 10.348206,397.29175 L 10.098206,411.573 L 20.348206,411.573 L 20.348206,397.29175 L 10.348206,397.29175 z M 10.348206,397.29175 L 20.348206,397.29175 L 20.348206,411.573 L 10.098206,411.573 L 10.348206,397.29175 z M 282.19196,382.5105 L 282.19196,396.79175 L 303.25446,396.79175 L 303.12946,382.5105 L 282.19196,382.5105 z M 282.19196,382.5105 L 303.12946,382.5105 L 303.25446,396.79175 L 282.19196,396.79175 L 282.19196,382.5105 z M 247.34821,382.5105 L 247.34821,396.79175 L 281.69196,396.79175 L 281.69196,382.5105 L 247.34821,382.5105 z M 247.34821,382.5105 L 281.69196,382.5105 L 281.69196,396.79175 L 247.34821,396.79175 L 247.34821,382.5105 z M 212.50446,382.5105 L 212.50446,396.79175 L 246.84821,396.79175 L 246.84821,382.5105 L 212.50446,382.5105 z M 212.50446,382.5105 L 246.84821,382.5105 L 246.84821,396.79175 L 212.50446,396.79175 L 212.50446,382.5105 z M 177.66071,382.5105 L 177.66071,396.79175 L 212.00446,396.79175 L 212.00446,382.5105 L 177.66071,382.5105 z M 177.66071,382.5105 L 212.00446,382.5105 L 212.00446,396.79175 L 177.66071,396.79175 L 177.66071,382.5105 z M 142.81696,382.5105 L 142.81696,396.79175 L 177.16071,396.79175 L 177.16071,382.5105 L 142.81696,382.5105 z M 142.81696,382.5105 L 177.16071,382.5105 L 177.16071,396.79175 L 142.81696,396.79175 L 142.81696,382.5105 z M 107.97321,382.5105 L 107.97321,396.79175 L 142.31696,396.79175 L 142.31696,382.5105 L 107.97321,382.5105 z M 107.97321,382.5105 L 142.31696,382.5105 L 142.31696,396.79175 L 107.97321,396.79175 L 107.97321,382.5105 z M 73.129456,382.5105 L 73.129456,396.79175 L 107.47321,396.79175 L 107.47321,382.5105 L 73.129456,382.5105 z M 73.129456,382.5105 L 107.47321,382.5105 L 107.47321,396.79175 L 73.129456,396.79175 L 73.129456,382.5105 z M 38.285706,382.5105 L 38.285706,396.79175 L 72.629456,396.79175 L 72.629456,382.5105 L 38.285706,382.5105 z M 38.285706,382.5105 L 72.629456,382.5105 L 72.629456,396.79175 L 38.285706,396.79175 L 38.285706,382.5105 z M 10.598206,382.5105 L 10.348206,396.79175 L 37.785706,396.79175 L 37.785706,382.5105 L 10.598206,382.5105 z M 10.598206,382.5105 L 37.785706,382.5105 L 37.785706,396.79175 L 10.348206,396.79175 L 10.598206,382.5105 z M 299.62946,367.72925 L 299.62946,382.0105 L 303.12946,382.0105 L 303.00446,367.8855 C 303.00448,367.88549 302.8326,367.76114 302.78571,367.72925 L 299.62946,367.72925 z M 299.62946,367.72925 L 302.78571,367.72925 C 302.8326,367.76114 303.00448,367.88549 303.00446,367.8855 L 303.12946,382.0105 L 299.62946,382.0105 L 299.62946,367.72925 z M 264.78571,367.72925 L 264.78571,382.0105 L 299.12946,382.0105 L 299.12946,367.72925 L 264.78571,367.72925 z M 264.78571,367.72925 L 299.12946,367.72925 L 299.12946,382.0105 L 264.78571,382.0105 L 264.78571,367.72925 z M 229.91071,367.72925 L 229.91071,382.0105 L 264.28571,382.0105 L 264.28571,367.72925 L 229.91071,367.72925 z M 229.91071,367.72925 L 264.28571,367.72925 L 264.28571,382.0105 L 229.91071,382.0105 L 229.91071,367.72925 z M 195.06696,367.72925 L 195.06696,382.0105 L 229.41071,382.0105 L 229.41071,367.72925 L 195.06696,367.72925 z M 195.06696,367.72925 L 229.41071,367.72925 L 229.41071,382.0105 L 195.06696,382.0105 L 195.06696,367.72925 z M 160.22321,367.72925 L 160.22321,382.0105 L 194.56696,382.0105 L 194.56696,367.72925 L 160.22321,367.72925 z M 160.22321,367.72925 L 194.56696,367.72925 L 194.56696,382.0105 L 160.22321,382.0105 L 160.22321,367.72925 z M 125.37946,367.72925 L 125.37946,382.0105 L 159.72321,382.0105 L 159.72321,367.72925 L 125.37946,367.72925 z M 125.37946,367.72925 L 159.72321,367.72925 L 159.72321,382.0105 L 125.37946,382.0105 L 125.37946,367.72925 z M 90.535706,367.72925 L 90.535706,382.0105 L 124.87946,382.0105 L 124.87946,367.72925 L 90.535706,367.72925 z M 90.535706,367.72925 L 124.87946,367.72925 L 124.87946,382.0105 L 90.535706,382.0105 L 90.535706,367.72925 z M 55.691956,367.72925 L 55.691956,382.0105 L 90.035706,382.0105 L 90.035706,367.72925 L 55.691956,367.72925 z M 55.691956,367.72925 L 90.035706,367.72925 L 90.035706,382.0105 L 55.691956,382.0105 L 55.691956,367.72925 z M 20.848206,367.72925 L 20.848206,382.0105 L 55.191956,382.0105 L 55.191956,367.72925 L 20.848206,367.72925 z M 20.848206,367.72925 L 55.191956,367.72925 L 55.191956,382.0105 L 20.848206,382.0105 L 20.848206,367.72925 z M 12.098206,367.72925 C 11.680626,368.02419 11.271256,368.31067 10.848206,368.60425 L 10.629456,382.0105 L 20.348206,382.0105 L 20.348206,367.72925 L 12.098206,367.72925 z M 12.098206,367.72925 L 20.348206,367.72925 L 20.348206,382.0105 L 10.629456,382.0105 L 10.848206,368.60425 C 11.271256,368.31067 11.680626,368.02419 12.098206,367.72925 z M 282.19196,352.97925 L 282.19196,367.22925 L 302.06696,367.22925 C 300.95473,366.42724 298.85065,364.85066 296.09821,362.47925 C 293.34577,360.10784 289.94488,356.94963 286.19196,352.97925 L 282.19196,352.97925 z M 282.19196,352.97925 L 286.19196,352.97925 C 289.94488,356.94963 293.34577,360.10784 296.09821,362.47925 C 298.85065,364.85066 300.95473,366.42724 302.06696,367.22925 L 282.19196,367.22925 L 282.19196,352.97925 z M 247.34821,352.97925 L 247.34821,367.22925 L 281.69196,367.22925 L 281.69196,352.97925 L 247.34821,352.97925 z M 247.34821,352.97925 L 281.69196,352.97925 L 281.69196,367.22925 L 247.34821,367.22925 L 247.34821,352.97925 z M 212.50446,352.97925 L 212.50446,367.22925 L 246.84821,367.22925 L 246.84821,352.97925 L 212.50446,352.97925 z M 212.50446,352.97925 L 246.84821,352.97925 L 246.84821,367.22925 L 212.50446,367.22925 L 212.50446,352.97925 z M 177.66071,352.97925 L 177.66071,367.22925 L 212.00446,367.22925 L 212.00446,352.97925 L 177.66071,352.97925 z M 177.66071,352.97925 L 212.00446,352.97925 L 212.00446,367.22925 L 177.66071,367.22925 L 177.66071,352.97925 z M 142.81696,352.97925 L 142.81696,367.22925 L 177.16071,367.22925 L 177.16071,352.97925 L 142.81696,352.97925 z M 142.81696,352.97925 L 177.16071,352.97925 L 177.16071,367.22925 L 142.81696,367.22925 L 142.81696,352.97925 z M 107.97321,352.97925 L 107.97321,367.22925 L 142.31696,367.22925 L 142.31696,352.97925 L 107.97321,352.97925 z M 107.97321,352.97925 L 142.31696,352.97925 L 142.31696,367.22925 L 107.97321,367.22925 L 107.97321,352.97925 z M 73.129456,352.97925 L 73.129456,367.22925 L 107.47321,367.22925 L 107.47321,352.97925 L 73.129456,352.97925 z M 73.129456,352.97925 L 107.47321,352.97925 L 107.47321,367.22925 L 73.129456,367.22925 L 73.129456,352.97925 z M 38.285706,352.97925 L 38.285706,367.22925 L 72.629456,367.22925 L 72.629456,352.97925 L 38.285706,352.97925 z M 38.285706,352.97925 L 72.629456,352.97925 L 72.629456,367.22925 L 38.285706,367.22925 L 38.285706,352.97925 z M 30.254456,352.97925 C 27.651446,355.4134 24.906046,357.81778 22.004456,360.198 C 19.102866,362.57822 16.044936,364.92627 12.816956,367.22925 L 37.785706,367.22925 L 37.785706,352.97925 L 30.254456,352.97925 z M 30.254456,352.97925 L 37.785706,352.97925 L 37.785706,367.22925 L 12.816956,367.22925 C 16.044936,364.92627 19.102866,362.57822 22.004456,360.198 C 24.906046,357.81778 27.651446,355.4134 30.254456,352.97925 z M 264.78571,338.16675 L 264.78571,352.448 L 285.72321,352.448 C 283.85921,350.45638 281.89514,348.29624 279.91071,345.91675 C 277.92628,343.53726 275.92141,340.94672 273.91071,338.16675 L 264.78571,338.16675 z M 264.78571,338.16675 L 273.91071,338.16675 C 275.92141,340.94672 277.92628,343.53726 279.91071,345.91675 C 281.89514,348.29624 283.85921,350.45638 285.72321,352.448 L 264.78571,352.448 L 264.78571,338.16675 z M 229.91071,338.16675 L 229.91071,352.448 L 264.28571,352.448 L 264.28571,338.16675 L 229.91071,338.16675 z M 229.91071,338.16675 L 264.28571,338.16675 L 264.28571,352.448 L 229.91071,352.448 L 229.91071,338.16675 z M 195.06696,338.16675 L 195.06696,352.448 L 229.41071,352.448 L 229.41071,338.16675 L 195.06696,338.16675 z M 195.06696,338.16675 L 229.41071,338.16675 L 229.41071,352.448 L 195.06696,352.448 L 195.06696,338.16675 z M 160.22321,338.16675 L 160.22321,352.448 L 194.56696,352.448 L 194.56696,338.16675 L 160.22321,338.16675 z M 160.22321,338.16675 L 194.56696,338.16675 L 194.56696,352.448 L 160.22321,352.448 L 160.22321,338.16675 z M 125.37946,338.16675 L 125.37946,352.448 L 159.72321,352.448 L 159.72321,338.16675 L 125.37946,338.16675 z M 125.37946,338.16675 L 159.72321,338.16675 L 159.72321,352.448 L 125.37946,352.448 L 125.37946,338.16675 z M 90.535706,338.16675 L 90.535706,352.448 L 124.87946,352.448 L 124.87946,338.16675 L 90.535706,338.16675 z M 90.535706,338.16675 L 124.87946,338.16675 L 124.87946,352.448 L 90.535706,352.448 L 90.535706,338.16675 z M 55.691956,338.16675 L 55.691956,352.448 L 90.035706,352.448 L 90.035706,338.16675 L 55.691956,338.16675 z M 55.691956,338.16675 L 90.035706,338.16675 L 90.035706,352.448 L 55.691956,352.448 L 55.691956,338.16675 z M 44.129456,338.16675 C 42.164416,340.57578 40.064646,342.96978 37.848206,345.35425 C 35.631766,347.73872 33.298556,350.10533 30.816956,352.448 L 55.191956,352.448 L 55.191956,338.16675 L 44.129456,338.16675 z M 44.129456,338.16675 L 55.191956,338.16675 L 55.191956,352.448 L 30.816956,352.448 C 33.298556,350.10533 35.631766,347.73872 37.848206,345.35425 C 40.064646,342.96978 42.164416,340.57578 44.129456,338.16675 z M 247.34821,323.3855 L 247.34821,337.66675 L 273.56696,337.66675 C 272.02573,335.5175 270.48928,333.26585 268.97321,330.8855 C 267.45714,328.50515 265.96137,326.00441 264.50446,323.3855 L 247.34821,323.3855 z M 247.34821,323.3855 L 264.50446,323.3855 C 265.96137,326.00441 267.45714,328.50515 268.97321,330.8855 C 270.48928,333.26585 272.02573,335.5175 273.56696,337.66675 L 247.34821,337.66675 L 247.34821,323.3855 z M 212.50446,323.3855 L 212.50446,337.66675 L 246.84821,337.66675 L 246.84821,323.3855 L 212.50446,323.3855 z M 212.50446,323.3855 L 246.84821,323.3855 L 246.84821,337.66675 L 212.50446,337.66675 L 212.50446,323.3855 z M 177.66071,323.3855 L 177.66071,337.66675 L 212.00446,337.66675 L 212.00446,323.3855 L 177.66071,323.3855 z M 177.66071,323.3855 L 212.00446,323.3855 L 212.00446,337.66675 L 177.66071,337.66675 L 177.66071,323.3855 z M 142.81696,323.3855 L 142.81696,337.66675 L 177.16071,337.66675 L 177.16071,323.3855 L 142.81696,323.3855 z M 142.81696,323.3855 L 177.16071,323.3855 L 177.16071,337.66675 L 142.81696,337.66675 L 142.81696,323.3855 z M 107.97321,323.3855 L 107.97321,337.66675 L 142.31696,337.66675 L 142.31696,323.3855 L 107.97321,323.3855 z M 107.97321,323.3855 L 142.31696,323.3855 L 142.31696,337.66675 L 107.97321,337.66675 L 107.97321,323.3855 z M 73.129456,323.3855 L 73.129456,337.66675 L 107.47321,337.66675 L 107.47321,323.3855 L 73.129456,323.3855 z M 73.129456,323.3855 L 107.47321,323.3855 L 107.47321,337.66675 L 73.129456,337.66675 L 73.129456,323.3855 z M 54.691956,323.3855 C 53.218236,325.77006 51.633366,328.15847 49.941956,330.54175 C 48.250546,332.92503 46.452516,335.29488 44.535706,337.66675 L 72.629456,337.66675 L 72.629456,323.3855 L 54.691956,323.3855 z M 54.691956,323.3855 L 72.629456,323.3855 L 72.629456,337.66675 L 44.535706,337.66675 C 46.452516,335.29488 48.250546,332.92503 49.941956,330.54175 C 51.633366,328.15847 53.218236,325.77006 54.691956,323.3855 z M 55.191956,322.573 C 55.133066,322.66977 55.063676,322.78874 55.004456,322.8855 L 55.191956,322.8855 L 55.191956,322.573 z M 55.191956,322.573 L 55.191956,322.8855 L 55.004456,322.8855 C 55.063676,322.78874 55.133066,322.66977 55.191956,322.573 z M 229.91071,308.60425 L 229.91071,322.8855 L 264.22321,322.8855 C 261.79,318.47114 259.5029,313.68518 257.37946,308.60425 L 229.91071,308.60425 z M 229.91071,308.60425 L 257.37946,308.60425 C 259.5029,313.68518 261.79,318.47114 264.22321,322.8855 L 229.91071,322.8855 L 229.91071,308.60425 z M 195.06696,308.60425 L 195.06696,322.8855 L 229.41071,322.8855 L 229.41071,308.60425 L 195.06696,308.60425 z M 195.06696,308.60425 L 229.41071,308.60425 L 229.41071,322.8855 L 195.06696,322.8855 L 195.06696,308.60425 z M 160.22321,308.60425 L 160.22321,322.8855 L 194.56696,322.8855 L 194.56696,308.60425 L 160.22321,308.60425 z M 160.22321,308.60425 L 194.56696,308.60425 L 194.56696,322.8855 L 160.22321,322.8855 L 160.22321,308.60425 z M 125.37946,308.60425 L 125.37946,322.8855 L 159.72321,322.8855 L 159.72321,308.60425 L 125.37946,308.60425 z M 125.37946,308.60425 L 159.72321,308.60425 L 159.72321,322.8855 L 125.37946,322.8855 L 125.37946,308.60425 z M 90.535706,308.60425 L 90.535706,322.8855 L 124.87946,322.8855 L 124.87946,308.60425 L 90.535706,308.60425 z M 90.535706,308.60425 L 124.87946,308.60425 L 124.87946,322.8855 L 90.535706,322.8855 L 90.535706,308.60425 z M 62.566956,308.60425 C 60.582926,312.94828 58.335096,317.34704 55.691956,321.7605 L 55.691956,322.8855 L 90.035706,322.8855 L 90.035706,308.60425 L 62.566956,308.60425 z M 62.566956,308.60425 L 90.035706,308.60425 L 90.035706,322.8855 L 55.691956,322.8855 L 55.691956,321.7605 C 58.335096,317.34704 60.582926,312.94828 62.566956,308.60425 z M 247.34821,293.823 L 247.34821,308.10425 L 257.16071,308.10425 C 255.2994,303.60296 253.59068,298.84758 252.09821,293.823 L 247.34821,293.823 z M 247.34821,293.823 L 252.09821,293.823 C 253.59068,298.84758 255.2994,303.60296 257.16071,308.10425 L 247.34821,308.10425 L 247.34821,293.823 z M 212.50446,293.823 L 212.50446,308.10425 L 246.84821,308.10425 L 246.84821,293.823 L 212.50446,293.823 z M 212.50446,293.823 L 246.84821,293.823 L 246.84821,308.10425 L 212.50446,308.10425 L 212.50446,293.823 z M 177.66071,293.823 L 177.66071,308.10425 L 212.00446,308.10425 L 212.00446,293.823 L 177.66071,293.823 z M 177.66071,293.823 L 212.00446,293.823 L 212.00446,308.10425 L 177.66071,308.10425 L 177.66071,293.823 z M 142.81696,293.823 L 142.81696,308.10425 L 177.16071,308.10425 L 177.16071,293.823 L 142.81696,293.823 z M 142.81696,293.823 L 177.16071,293.823 L 177.16071,308.10425 L 142.81696,308.10425 L 142.81696,293.823 z M 107.97321,293.823 L 107.97321,308.10425 L 142.31696,308.10425 L 142.31696,293.823 L 107.97321,293.823 z M 107.97321,293.823 L 142.31696,293.823 L 142.31696,308.10425 L 107.97321,308.10425 L 107.97321,293.823 z M 73.129456,293.823 L 73.129456,308.10425 L 107.47321,308.10425 L 107.47321,293.823 L 73.129456,293.823 z M 73.129456,293.823 L 107.47321,293.823 L 107.47321,308.10425 L 73.129456,308.10425 L 73.129456,293.823 z M 68.316956,293.823 C 66.831356,298.47501 65.005576,303.25828 62.816956,308.10425 L 72.629456,308.10425 L 72.629456,293.823 L 68.316956,293.823 z M 68.316956,293.823 L 72.629456,293.823 L 72.629456,308.10425 L 62.816956,308.10425 C 65.005576,303.25828 66.831356,298.47501 68.316956,293.823 z M 229.91071,279.04175 L 229.91071,293.323 L 251.94196,293.323 C 250.61041,288.78081 249.44426,284.01195 248.50446,279.04175 L 229.91071,279.04175 z M 229.91071,279.04175 L 248.50446,279.04175 C 249.44426,284.01195 250.61041,288.78081 251.94196,293.323 L 229.91071,293.323 L 229.91071,279.04175 z M 195.06696,279.04175 L 195.06696,293.323 L 229.41071,293.323 L 229.41071,279.04175 L 195.06696,279.04175 z M 195.06696,279.04175 L 229.41071,279.04175 L 229.41071,293.323 L 195.06696,293.323 L 195.06696,279.04175 z M 160.22321,279.04175 L 160.22321,293.323 L 194.56696,293.323 L 194.56696,279.04175 L 160.22321,279.04175 z M 160.22321,279.04175 L 194.56696,279.04175 L 194.56696,293.323 L 160.22321,293.323 L 160.22321,279.04175 z M 125.37946,279.04175 L 125.37946,293.323 L 159.72321,293.323 L 159.72321,279.04175 L 125.37946,279.04175 z M 125.37946,279.04175 L 159.72321,279.04175 L 159.72321,293.323 L 125.37946,293.323 L 125.37946,279.04175 z M 90.535706,279.04175 L 90.535706,293.323 L 124.87946,293.323 L 124.87946,279.04175 L 90.535706,279.04175 z M 90.535706,279.04175 L 124.87946,279.04175 L 124.87946,293.323 L 90.535706,293.323 L 90.535706,279.04175 z M 72.129456,279.04175 C 71.224236,283.61391 70.023296,288.40215 68.473206,293.323 L 90.035706,293.323 L 90.035706,279.04175 L 72.129456,279.04175 z M 72.129456,279.04175 L 90.035706,279.04175 L 90.035706,293.323 L 68.473206,293.323 C 70.023296,288.40215 71.224236,283.61391 72.129456,279.04175 z M 72.629456,276.2605 C 72.494936,277.02458 72.342636,277.76519 72.191956,278.54175 L 72.629456,278.54175 L 72.629456,276.2605 z M 72.629456,276.2605 L 72.629456,278.54175 L 72.191956,278.54175 C 72.342636,277.76519 72.494936,277.02458 72.629456,276.2605 z M 247.34821,271.97925 L 247.34821,278.54175 L 248.44196,278.54175 C 248.04288,276.39201 247.66259,274.20905 247.34821,271.97925 z M 247.34821,271.97925 C 247.66259,274.20905 248.04288,276.39201 248.44196,278.54175 L 247.34821,278.54175 L 247.34821,271.97925 z M 212.50446,264.2605 L 212.50446,278.54175 L 246.84821,278.54175 L 246.84821,267.97925 C 246.70711,266.74865 246.58687,265.51457 246.47321,264.2605 L 212.50446,264.2605 z M 212.50446,264.2605 L 246.47321,264.2605 C 246.58687,265.51457 246.70711,266.74865 246.84821,267.97925 L 246.84821,278.54175 L 212.50446,278.54175 L 212.50446,264.2605 z M 177.66071,264.2605 L 177.66071,278.54175 L 212.00446,278.54175 L 212.00446,264.2605 L 177.66071,264.2605 z M 177.66071,264.2605 L 212.00446,264.2605 L 212.00446,278.54175 L 177.66071,278.54175 L 177.66071,264.2605 z M 142.81696,264.2605 L 142.81696,278.54175 L 177.16071,278.54175 L 177.16071,264.2605 L 142.81696,264.2605 z M 142.81696,264.2605 L 177.16071,264.2605 L 177.16071,278.54175 L 142.81696,278.54175 L 142.81696,264.2605 z M 107.97321,264.2605 L 107.97321,278.54175 L 142.31696,278.54175 L 142.31696,264.2605 L 107.97321,264.2605 z M 107.97321,264.2605 L 142.31696,264.2605 L 142.31696,278.54175 L 107.97321,278.54175 L 107.97321,264.2605 z M 74.223206,264.2605 C 73.980206,267.10665 73.603396,270.09171 73.129456,273.198 L 73.129456,278.54175 L 107.47321,278.54175 L 107.47321,264.2605 L 74.223206,264.2605 z M 74.223206,264.2605 L 107.47321,264.2605 L 107.47321,278.54175 L 73.129456,278.54175 L 73.129456,273.198 C 73.603396,270.09171 73.980206,267.10665 74.223206,264.2605 z M 229.91071,249.5105 L 229.91071,263.7605 L 246.41071,263.7605 C 246.00921,259.16725 245.78602,254.41834 245.78571,249.5105 L 229.91071,249.5105 z M 229.91071,249.5105 L 245.78571,249.5105 C 245.78602,254.41834 246.00921,259.16725 246.41071,263.7605 L 229.91071,263.7605 L 229.91071,249.5105 z M 195.06696,249.5105 L 195.06696,263.7605 L 229.41071,263.7605 L 229.41071,249.5105 L 195.06696,249.5105 z M 195.06696,249.5105 L 229.41071,249.5105 L 229.41071,263.7605 L 195.06696,263.7605 L 195.06696,249.5105 z M 160.22321,249.5105 L 160.22321,263.7605 L 194.56696,263.7605 L 194.56696,249.5105 L 160.22321,249.5105 z M 160.22321,249.5105 L 194.56696,249.5105 L 194.56696,263.7605 L 160.22321,263.7605 L 160.22321,249.5105 z M 125.37946,249.5105 L 125.37946,263.7605 L 159.72321,263.7605 L 159.72321,249.5105 L 125.37946,249.5105 z M 125.37946,249.5105 L 159.72321,249.5105 L 159.72321,263.7605 L 125.37946,263.7605 L 125.37946,249.5105 z M 90.535706,249.5105 L 90.535706,263.7605 L 124.87946,263.7605 L 124.87946,249.5105 L 90.535706,249.5105 z M 90.535706,249.5105 L 124.87946,249.5105 L 124.87946,263.7605 L 90.535706,263.7605 L 90.535706,249.5105 z M 74.660706,249.5105 C 74.768026,253.64918 74.686226,258.46875 74.254456,263.7605 L 90.035706,263.7605 L 90.035706,249.5105 L 74.660706,249.5105 z M 74.660706,249.5105 L 90.035706,249.5105 L 90.035706,263.7605 L 74.254456,263.7605 C 74.686226,258.46875 74.768026,253.64918 74.660706,249.5105 z M 212.50446,234.698 L 212.50446,249.0105 L 245.78571,249.0105 C 245.79912,244.38441 246.02726,239.60407 246.44196,234.698 L 212.50446,234.698 z M 212.50446,234.698 L 246.44196,234.698 C 246.02726,239.60407 245.79912,244.38441 245.78571,249.0105 L 212.50446,249.0105 L 212.50446,234.698 z M 177.66071,234.698 L 177.66071,249.0105 L 212.00446,249.0105 L 212.00446,234.698 L 177.66071,234.698 z M 177.66071,234.698 L 212.00446,234.698 L 212.00446,249.0105 L 177.66071,249.0105 L 177.66071,234.698 z M 142.81696,234.698 L 142.81696,249.0105 L 177.16071,249.0105 L 177.16071,234.698 L 142.81696,234.698 z M 142.81696,234.698 L 177.16071,234.698 L 177.16071,249.0105 L 142.81696,249.0105 L 142.81696,234.698 z M 107.97321,234.698 L 107.97321,249.0105 L 142.31696,249.0105 L 142.31696,234.698 L 107.97321,234.698 z M 107.97321,234.698 L 142.31696,234.698 L 142.31696,249.0105 L 107.97321,249.0105 L 107.97321,234.698 z M 73.316956,234.698 C 73.522336,235.87588 73.785266,237.70261 74.035706,240.10425 C 74.286146,242.50589 74.524066,245.50539 74.629456,249.0105 L 107.47321,249.0105 L 107.47321,234.698 L 73.316956,234.698 z M 73.316956,234.698 L 107.47321,234.698 L 107.47321,249.0105 L 74.629456,249.0105 C 74.524066,245.50539 74.286146,242.50589 74.035706,240.10425 C 73.785266,237.70261 73.522336,235.87588 73.316956,234.698 z M 229.91071,233.073 L 229.91071,234.198 L 246.47321,234.198 C 246.50636,233.81808 246.53124,233.45459 246.56696,233.073 L 229.91071,233.073 z M 229.91071,233.073 L 246.56696,233.073 C 246.53124,233.45459 246.50636,233.81808 246.47321,234.198 L 229.91071,234.198 L 229.91071,233.073 z M 195.06696,233.073 L 195.06696,234.198 L 229.41071,234.198 L 229.41071,233.073 L 195.06696,233.073 z M 195.06696,233.073 L 229.41071,233.073 L 229.41071,234.198 L 195.06696,234.198 L 195.06696,233.073 z M 160.22321,233.073 L 160.22321,234.198 L 194.56696,234.198 L 194.56696,233.073 L 160.22321,233.073 z M 160.22321,233.073 L 194.56696,233.073 L 194.56696,234.198 L 160.22321,234.198 L 160.22321,233.073 z M 125.37946,233.073 L 125.37946,234.198 L 159.72321,234.198 L 159.72321,233.073 L 125.37946,233.073 z M 125.37946,233.073 L 159.72321,233.073 L 159.72321,234.198 L 125.37946,234.198 L 125.37946,233.073 z M 90.535706,233.073 L 90.535706,234.198 L 124.87946,234.198 L 124.87946,233.073 L 90.535706,233.073 z M 90.535706,233.073 L 124.87946,233.073 L 124.87946,234.198 L 90.535706,234.198 L 90.535706,233.073 z M 73.004456,233.073 C 73.004476,233.073 73.095376,233.49587 73.223206,234.198 L 90.035706,234.198 L 90.035706,233.073 L 73.004456,233.073 z M 73.004456,233.073 L 90.035706,233.073 L 90.035706,234.198 L 73.223206,234.198 C 73.095376,233.49587 73.004476,233.073 73.004456,233.073 z "
         style="color:#000000;fill:#a0892c;fill-opacity:1;fill-rule:evenodd;stroke:#c8ab37;stroke-width:1.5;stroke-linecap:butt;stroke-linejoin:miter;marker:none;marker-start:none;marker-mid:none;marker-end:none;stroke-miterlimit:4;stroke-dasharray:none;stroke-dashoffset:0;stroke-opacity:1;visibility:visible;display:inline;overflow:visible;enable-background:accumulate"
         id="path11708" />
      <path
         sodipodi:nodetypes="cccccccc"
         d="M 101.52033,451.06888 L 101.01525,391.97496 C 102.0254,375.30744 115.15739,356.11455 143.94674,353.33663 L 160.10918,353.58916 M 216.93026,450.94261 L 217.43534,391.84869 C 218.44549,382.75732 202.28304,355.23066 174.50385,353.21036 L 158.34141,353.46289"
         style="color:#000000;fill:none;fill-opacity:1;fill-rule:evenodd;stroke:#a0892c;stroke-width:2.25;stroke-linecap:butt;stroke-linejoin:miter;marker:none;marker-start:none;marker-mid:none;marker-end:none;stroke-miterlimit:4;stroke-dasharray:none;stroke-dashoffset:0;stroke-opacity:1;visibility:visible;display:inline;overflow:visible;enable-background:accumulate"
         id="path9946" />
      <path
         sodipodi:nodetypes="cccccccc"
         d="M 109.46488,450.66602 L 109.03503,396.25242 C 109.89471,380.90497 121.07075,363.23219 145.57205,360.67428 L 159.32717,360.90681 M 207.68497,450.54976 L 208.11482,396.13613 C 208.97451,387.76482 195.21939,362.4183 171.5778,360.55802 L 157.82268,360.79055"
         style="opacity:1;color:#000000;fill:none;fill-opacity:1;fill-rule:evenodd;stroke:#a0892c;stroke-width:2.32160854;stroke-linecap:butt;stroke-linejoin:miter;marker:none;marker-start:none;marker-mid:none;marker-end:none;stroke-miterlimit:4;stroke-dasharray:none;stroke-dashoffset:0;stroke-opacity:1;visibility:visible;display:inline;overflow:visible;enable-background:accumulate"
         id="path10927" />
      <path
         id="path10929"
         d="M 125.00638,450.31127 L 192.18152,450.31127 L 192.18152,393.49019 C 192.18152,393.49019 184.35284,375.55998 160.36172,373.28714 C 136.37059,371.0143 124.75384,394.2478 124.75384,394.2478 L 125.00638,450.31127 z "
         style="fill:#216778;fill-rule:evenodd;stroke:#164450;stroke-width:0.75;stroke-linecap:butt;stroke-linejoin:miter;stroke-miterlimit:4;stroke-dasharray:none;stroke-opacity:1" />
      <path
         id="path10931"
         d="M 129.04699,386.9242 L 110.10663,372.02445"
         style="opacity:1;color:#000000;fill:none;fill-opacity:1;fill-rule:evenodd;stroke:#a0892c;stroke-width:2.25;stroke-linecap:butt;stroke-linejoin:miter;marker:none;marker-start:none;marker-mid:none;marker-end:none;stroke-miterlimit:4;stroke-dasharray:none;stroke-dashoffset:0;stroke-opacity:1;visibility:visible;display:inline;overflow:visible;enable-background:accumulate" />
      <path
         id="path10933"
         d="M 188.64599,386.67166 L 208.34396,372.52952"
         style="opacity:1;color:#000000;fill:none;fill-opacity:1;fill-rule:evenodd;stroke:#a0892c;stroke-width:2.25;stroke-linecap:butt;stroke-linejoin:miter;marker:none;marker-start:none;marker-mid:none;marker-end:none;stroke-miterlimit:4;stroke-dasharray:none;stroke-dashoffset:0;stroke-opacity:1;visibility:visible;display:inline;overflow:visible;enable-background:accumulate" />
      <path
         id="path10935"
         d="M 123.49115,403.08664 L 100.76272,403.08664"
         style="opacity:1;color:#000000;fill:none;fill-opacity:1;fill-rule:evenodd;stroke:#a0892c;stroke-width:2.25;stroke-linecap:butt;stroke-linejoin:miter;marker:none;marker-start:none;marker-mid:none;marker-end:none;stroke-miterlimit:4;stroke-dasharray:none;stroke-dashoffset:0;stroke-opacity:1;visibility:visible;display:inline;overflow:visible;enable-background:accumulate" />
      <path
         id="path10937"
         d="M 101.01525,427.83538 L 124.75384,428.08791"
         style="opacity:1;color:#000000;fill:none;fill-opacity:1;fill-rule:evenodd;stroke:#a0892c;stroke-width:2.25;stroke-linecap:butt;stroke-linejoin:miter;marker:none;marker-start:none;marker-mid:none;marker-end:none;stroke-miterlimit:4;stroke-dasharray:none;stroke-dashoffset:0;stroke-opacity:1;visibility:visible;display:inline;overflow:visible;enable-background:accumulate" />
      <path
         id="path10939"
         d="M 192.43406,427.58284 L 217.1828,427.58284"
         style="opacity:1;color:#000000;fill:none;fill-opacity:1;fill-rule:evenodd;stroke:#a0892c;stroke-width:2.25;stroke-linecap:butt;stroke-linejoin:miter;marker:none;marker-start:none;marker-mid:none;marker-end:none;stroke-miterlimit:4;stroke-dasharray:none;stroke-dashoffset:0;stroke-opacity:1;visibility:visible;display:inline;overflow:visible;enable-background:accumulate" />
      <path
         id="path10941"
         d="M 192.6866,403.08664 L 217.94041,403.33918"
         style="opacity:1;color:#000000;fill:none;fill-opacity:1;fill-rule:evenodd;stroke:#a0892c;stroke-width:2.25;stroke-linecap:butt;stroke-linejoin:miter;marker:none;marker-start:none;marker-mid:none;marker-end:none;stroke-miterlimit:4;stroke-dasharray:none;stroke-dashoffset:0;stroke-opacity:1;visibility:visible;display:inline;overflow:visible;enable-background:accumulate" />
      <path
         id="path10943"
         d="M 157.5838,372.78206 L 157.5838,352.57901"
         style="opacity:1;color:#000000;fill:none;fill-opacity:1;fill-rule:evenodd;stroke:#a0892c;stroke-width:2.25;stroke-linecap:butt;stroke-linejoin:miter;marker:none;marker-start:none;marker-mid:none;marker-end:none;stroke-miterlimit:4;stroke-dasharray:none;stroke-dashoffset:0;stroke-opacity:1;visibility:visible;display:inline;overflow:visible;enable-background:accumulate" />
      <path
         id="path14152"
         d="M 113.9375,269.15625 C 106.54464,269.15625 100.53125,273.31179 100.53125,278.4375 L 100.53125,308.25 L 127.3125,308.25 L 127.3125,278.4375 C 127.3125,273.31179 121.33036,269.15624 113.9375,269.15625 z "
         style="opacity:1;color:#000000;fill:#216778;fill-opacity:1;fill-rule:evenodd;stroke:#164450;stroke-width:1px;stroke-linecap:butt;stroke-linejoin:miter;marker:none;marker-start:none;marker-mid:none;marker-end:none;stroke-miterlimit:4;stroke-dasharray:none;stroke-dashoffset:0;stroke-opacity:1;visibility:visible;display:inline;overflow:visible;enable-background:accumulate" />
      <path
         id="path14159"
         d="M 206.97991,270.31531 C 199.58705,270.31531 193.57366,274.47085 193.57366,279.59656 L 193.57366,309.40906 L 220.35491,309.40906 L 220.35491,279.59656 C 220.35491,274.47085 214.37277,270.3153 206.97991,270.31531 z "
         style="opacity:1;color:#000000;fill:#216778;fill-opacity:1;fill-rule:evenodd;stroke:#164450;stroke-width:1px;stroke-linecap:butt;stroke-linejoin:miter;marker:none;marker-start:none;marker-mid:none;marker-end:none;stroke-miterlimit:4;stroke-dasharray:none;stroke-dashoffset:0;stroke-opacity:1;visibility:visible;display:inline;overflow:visible;enable-background:accumulate" />
    </g>
  </g>
</svg>
